<svg width="47" height="64" viewBox="0 0 47 64" fill="none" xmlns="http://www.w3.org/2000/svg">
    <mask id="path-1-outside-1_2_1649" maskUnits="userSpaceOnUse" x="0.988617" y="2.84686" width="46" height="61"
          fill="black">
        <rect fill="white" x="0.988617" y="2.84686" width="46" height="61"/>
        <path d="M23.8565 60.9377L6.93599 47.818C4.46135 45.8993 2.98861 42.7717 2.98862 39.4353L2.98862 11.1686L23.8565 5.84686L44.1249 11.1686L44.1249 39.4353C44.1249 42.778 42.6712 45.9179 40.2161 47.8778L23.8565 60.9377Z"/>
    </mask>
    <path d="M23.8565 60.9377L6.93599 47.818C4.46135 45.8993 2.98861 42.7717 2.98862 39.4353L2.98862 11.1686L23.8565 5.84686L44.1249 11.1686L44.1249 39.4353C44.1249 42.778 42.6712 45.9179 40.2161 47.8778L23.8565 60.9377Z"
          fill="#455D4C"/>
    <path d="M6.93599 47.818L5.71048 49.3986L5.71048 49.3986L6.93599 47.818ZM23.8565 60.9377L22.631 62.5183L23.8746 63.4825L25.1043 62.5008L23.8565 60.9377ZM2.98862 11.1686L2.4944 9.23061L0.98862 9.61461L0.98862 11.1686L2.98862 11.1686ZM2.98862 39.4353L4.98862 39.4353L4.98862 39.4353L2.98862 39.4353ZM23.8565 5.84686L24.3644 3.91243L23.8638 3.78099L23.3623 3.90889L23.8565 5.84686ZM44.1249 11.1686L46.1249 11.1686L46.1249 9.62591L44.6328 9.23415L44.1249 11.1686ZM44.1249 39.4353L42.1249 39.4353L42.1249 39.4353L44.1249 39.4353ZM40.2161 47.8778L41.4639 49.4408L41.4639 49.4408L40.2161 47.8778ZM5.71048 49.3986L22.631 62.5183L25.082 59.3572L8.1615 46.2375L5.71048 49.3986ZM0.98862 11.1686L0.988617 39.4353L4.98862 39.4353L4.98862 11.1686L0.98862 11.1686ZM23.3623 3.90889L2.4944 9.23061L3.48284 13.1066L24.3508 7.78484L23.3623 3.90889ZM44.6328 9.23415L24.3644 3.91243L23.3486 7.78129L43.617 13.103L44.6328 9.23415ZM46.1249 39.4353L46.1249 11.1686L42.1249 11.1686L42.1249 39.4353L46.1249 39.4353ZM25.1043 62.5008L41.4639 49.4408L38.9683 46.3147L22.6088 59.3747L25.1043 62.5008ZM41.4639 49.4408C44.4284 47.0742 46.1249 43.3414 46.1249 39.4353L42.1249 39.4353C42.1249 42.2146 40.914 44.7615 38.9683 46.3147L41.4639 49.4408ZM8.1615 46.2375C6.21131 44.7254 4.98861 42.2004 4.98862 39.4353L0.988617 39.4353C0.988611 43.3431 2.71138 47.0732 5.71048 49.3986L8.1615 46.2375Z"
          fill="#050F11" mask="url(#path-1-outside-1_2_1649)"/>
    <mask id="path-3-inside-2_2_1649" fill="white">
        <path d="M23.8564 56.0284L6.9359 42.9087C4.46126 40.9899 2.98852 37.8624 2.98853 34.5259L2.98853 6.25922L23.8564 0.9375L44.1248 6.25922V13.3259V20.3926V27.4592L44.1248 34.5259C44.1248 37.8686 42.6711 41.0085 40.216 42.9684L23.8564 56.0284Z"/>
    </mask>
    <path d="M23.8564 56.0284L6.9359 42.9087C4.46126 40.9899 2.98852 37.8624 2.98853 34.5259L2.98853 6.25922L23.8564 0.9375L44.1248 6.25922V13.3259V20.3926V27.4592L44.1248 34.5259C44.1248 37.8686 42.6711 41.0085 40.216 42.9684L23.8564 56.0284Z"
          fill="#050F11"/>
    <path d="M6.9359 42.9087L6.32315 43.699L6.32315 43.699L6.9359 42.9087ZM23.8564 56.0284L23.2437 56.8187L23.8655 57.3008L24.4803 56.8099L23.8564 56.0284ZM2.98853 6.25922L2.74142 5.29023L1.98853 5.48223L1.98853 6.25922L2.98853 6.25922ZM2.98853 34.5259L3.98853 34.5259L3.98853 34.5259L2.98853 34.5259ZM23.8564 0.9375L24.1104 -0.0297161L23.8601 -0.0954364L23.6093 -0.0314873L23.8564 0.9375ZM44.1248 6.25922H45.1248V5.48788L44.3788 5.292L44.1248 6.25922ZM44.1248 34.5259L45.1248 34.5259L45.1248 34.5259L44.1248 34.5259ZM40.216 42.9684L40.8399 43.7499L40.8399 43.7499L40.216 42.9684ZM44.1248 27.4592L43.1248 27.4592L43.1248 27.4592L44.1248 27.4592ZM6.32315 43.699L23.2437 56.8187L24.4692 55.2381L7.54866 42.1184L6.32315 43.699ZM1.98853 6.25922L1.98853 34.5259L3.98853 34.5259L3.98853 6.25922L1.98853 6.25922ZM23.6093 -0.0314873L2.74142 5.29023L3.23564 7.2282L24.1035 1.90649L23.6093 -0.0314873ZM44.3788 5.292L24.1104 -0.0297161L23.6025 1.90472L43.8708 7.22643L44.3788 5.292ZM24.4803 56.8099L40.8399 43.7499L39.5921 42.1869L23.2326 55.2469L24.4803 56.8099ZM40.8399 43.7499C43.5497 41.5867 45.1248 38.1503 45.1248 34.5259L43.1248 34.5259C43.1248 37.587 41.7925 40.4303 39.5921 42.1869L40.8399 43.7499ZM7.54866 42.1184C5.33624 40.403 3.98852 37.5767 3.98853 34.5259L1.98853 34.5259C1.98852 38.1481 3.58627 41.5769 6.32315 43.699L7.54866 42.1184ZM45.1248 20.3926V13.3259H43.1248V20.3926H45.1248ZM45.1248 13.3259V6.25922H43.1248V13.3259H45.1248ZM45.1248 34.5259L45.1248 27.4592L43.1248 27.4592L43.1248 34.5259L45.1248 34.5259ZM45.1248 27.4592V20.3926H43.1248V27.4592H45.1248Z"
          fill="#69FF93" mask="url(#path-3-inside-2_2_1649)"/>
    <path d="M10.5567 25.8875L17.3115 25.8875" stroke="#69FF93" stroke-miterlimit="10"/>
    <path d="M14.3594 16.7045L19.3198 21.6447" stroke="#69FF93" stroke-miterlimit="10"/>
    <path d="M19.3198 30.1342L14.3595 35.0743" stroke="#69FF93" stroke-miterlimit="10"/>
    <path d="M11.4817 21.04L17.9895 23.6483" stroke="#69FF93" stroke-miterlimit="10"/>
    <path d="M21.3327 31.4619L18.7137 37.9432" stroke="#69FF93" stroke-miterlimit="10"/>
    <path d="M18.4702 13.9365L21.2201 20.3636" stroke="#69FF93" stroke-miterlimit="10"/>
    <path d="M18.0358 28.2451L11.5824 30.9838" stroke="#69FF93" stroke-miterlimit="10"/>
    <path d="M10.818 23.2181L17.6824 24.657" stroke="#69FF93" stroke-miterlimit="10"/>
    <path d="M22.3423 31.7672L20.8977 38.6036" stroke="#69FF93" stroke-miterlimit="10"/>
    <path d="M16.4568 15.0062L20.2892 20.8578" stroke="#69FF93" stroke-miterlimit="10"/>
    <path d="M18.5328 29.1752L12.6575 32.992" stroke="#69FF93" stroke-miterlimit="10"/>
    <path d="M12.7441 18.6626L18.5729 22.5496" stroke="#69FF93" stroke-miterlimit="10"/>
    <path d="M20.2289 30.8825L16.3259 36.6876" stroke="#69FF93" stroke-miterlimit="10"/>
    <path d="M21.0515 13.1457L22.4132 19.9991" stroke="#69FF93" stroke-miterlimit="10"/>
    <path d="M17.6681 27.0539L10.7866 28.4103" stroke="#69FF93" stroke-miterlimit="10"/>
    <path d="M36.5567 25.8885H25.8355" stroke="#69FF93" stroke-miterlimit="10"/>
    <path d="M23.589 32.1559L23.589 38.7892" stroke="#69FF93" stroke-miterlimit="10"/>
    <path d="M32.8091 16.7009L27.8487 21.6411" stroke="#69FF93" stroke-miterlimit="10"/>
    <path d="M27.8489 30.1326L32.8092 35.0727" stroke="#69FF93" stroke-miterlimit="10"/>
    <path d="M35.6869 21.0341L29.1791 23.6424" stroke="#69FF93" stroke-miterlimit="10"/>
    <path d="M25.8358 31.4561L28.4548 37.9373" stroke="#69FF93" stroke-miterlimit="10"/>
    <path d="M28.6982 13.9309L25.9483 20.358" stroke="#69FF93" stroke-miterlimit="10"/>
    <path d="M29.1327 28.2393L35.5862 30.978" stroke="#69FF93" stroke-miterlimit="10"/>
    <path d="M36.3505 23.2123L29.4861 24.6512" stroke="#69FF93" stroke-miterlimit="10"/>
    <path d="M24.8263 31.7655L26.2709 38.602" stroke="#69FF93" stroke-miterlimit="10"/>
    <path d="M30.7117 15.0027L26.8793 20.8543" stroke="#69FF93" stroke-miterlimit="10"/>
    <path d="M28.6358 29.167L34.5111 32.9838" stroke="#69FF93" stroke-miterlimit="10"/>
    <path d="M34.4245 18.6567L28.5957 22.5438" stroke="#69FF93" stroke-miterlimit="10"/>
    <path d="M26.9399 30.8813L30.8428 36.6863" stroke="#69FF93" stroke-miterlimit="10"/>
    <path d="M26.117 13.1398L24.7553 19.9933" stroke="#69FF93" stroke-miterlimit="10"/>
    <path d="M29.5005 27.0526L36.382 28.409" stroke="#69FF93" stroke-miterlimit="10"/>
    <path d="M23.5844 12.7929L23.5844 19.8798" stroke="#69FF93" stroke-miterlimit="10"/>
    <mask id="path-37-outside-3_2_1649" maskUnits="userSpaceOnUse" x="12.7233" y="14.791" width="22" height="22"
          fill="black">
        <rect fill="white" x="12.7233" y="14.791" width="22" height="22"/>
        <path d="M33.7233 25.791C33.7233 31.3139 29.2462 35.791 23.7233 35.791C18.2005 35.791 13.7233 31.3139 13.7233 25.791C13.7233 20.2682 18.2005 15.791 23.7233 15.791C29.2462 15.791 33.7233 20.2682 33.7233 25.791Z"/>
    </mask>
    <path d="M33.7233 25.791C33.7233 31.3139 29.2462 35.791 23.7233 35.791C18.2005 35.791 13.7233 31.3139 13.7233 25.791C13.7233 20.2682 18.2005 15.791 23.7233 15.791C29.2462 15.791 33.7233 20.2682 33.7233 25.791Z"
          fill="#050F11"/>
    <path d="M32.7233 25.791C32.7233 30.7616 28.6939 34.791 23.7233 34.791V36.791C29.7985 36.791 34.7233 31.8661 34.7233 25.791H32.7233ZM23.7233 34.791C18.7528 34.791 14.7233 30.7616 14.7233 25.791H12.7233C12.7233 31.8661 17.6482 36.791 23.7233 36.791V34.791ZM14.7233 25.791C14.7233 20.8205 18.7528 16.791 23.7233 16.791V14.791C17.6482 14.791 12.7233 19.7159 12.7233 25.791H14.7233ZM23.7233 16.791C28.6939 16.791 32.7233 20.8205 32.7233 25.791H34.7233C34.7233 19.7159 29.7985 14.791 23.7233 14.791V16.791Z"
          fill="#69FF93" mask="url(#path-37-outside-3_2_1649)"/>
    <path d="M23.5567 17.2025C22.9393 22.5706 20.1181 27.4432 15.765 30.6608C20.7355 28.5099 26.3779 28.5099 31.3483 30.6608C26.9952 27.4436 24.1744 22.5706 23.5567 17.2025Z"
          fill="white"/>
</svg>
