<svg width="21" height="21" viewBox="0 0 21 21" fill="none" xmlns="http://www.w3.org/2000/svg">
<g clip-path="url(#clip0_173_479)">
<path d="M6.24064 16.3795L2.52814 19.2961V3.87948C2.52814 3.65846 2.61593 3.4465 2.77221 3.29022C2.9285 3.13394 3.14046 3.04614 3.36147 3.04614H18.3615C18.5825 3.04614 18.7944 3.13394 18.9507 3.29022C19.107 3.4465 19.1948 3.65846 19.1948 3.87948V15.5461C19.1948 15.7672 19.107 15.9791 18.9507 16.1354C18.7944 16.2917 18.5825 16.3795 18.3615 16.3795H6.24064ZM5.66397 14.7128H17.5281V4.71281H4.1948V15.867L5.66397 14.7128Z" fill="#69FF93"/>
<path d="M15.8314 9.82497L15.9728 9.68355L15.8314 9.54213L13.5551 7.26587L13.4137 7.12445L13.2723 7.26587L12.7033 7.83483L12.5619 7.97626L12.7033 8.11768L14.2692 9.68355L12.7033 11.2494L12.5619 11.3909L12.7033 11.5323L13.2723 12.1012L13.4137 12.2427L13.5551 12.1012L15.8314 9.82497ZM9.01949 11.2494L7.45359 9.68354L9.0191 8.11766L9.16044 7.97629L9.01913 7.83488L8.45057 7.26592L8.30915 7.1244L8.16768 7.26587L5.89142 9.54213L5.74999 9.68355L5.89142 9.82497L8.16768 12.1012L8.3091 12.2427L8.45052 12.1012L9.01949 11.5323L9.16091 11.3909L9.01949 11.2494ZM9.97133 13.505H10.1114L10.1593 13.3734L12.7957 6.13054L12.8934 5.86213H12.6077H11.7515H11.6114L11.5635 5.99372L8.92713 13.2366L8.82943 13.505H9.11507H9.97133Z" fill="#69FF93" stroke="#69FF93" stroke-width="0.4"/>
</g>
<defs>
<clipPath id="clip0_173_479">
<rect width="20" height="20" fill="white" transform="translate(0.86145 0.546143)"/>
</clipPath>
</defs>
</svg>
