<svg width="46" height="64" viewBox="0 0 46 64" fill="none" xmlns="http://www.w3.org/2000/svg">
<mask id="path-1-outside-1_2_2205" maskUnits="userSpaceOnUse" x="0.116699" y="2.8493" width="46" height="61" fill="black">
<rect fill="white" x="0.116699" y="2.8493" width="46" height="61"/>
<path d="M22.9846 60.9402L6.06407 47.8205C3.58943 45.9017 2.11669 42.7742 2.1167 39.4377L2.1167 11.171L22.9846 5.8493L43.253 11.171L43.253 39.4377C43.253 42.7804 41.7993 45.9203 39.3442 47.8802L22.9846 60.9402Z"/>
</mask>
<path d="M22.9846 60.9402L6.06407 47.8205C3.58943 45.9017 2.11669 42.7742 2.1167 39.4377L2.1167 11.171L22.9846 5.8493L43.253 11.171L43.253 39.4377C43.253 42.7804 41.7993 45.9203 39.3442 47.8802L22.9846 60.9402Z" fill="#455D4C"/>
<path d="M6.06407 47.8205L4.83856 49.401L4.83857 49.401L6.06407 47.8205ZM22.9846 60.9402L21.7591 62.5207L23.0026 63.4849L24.2324 62.5032L22.9846 60.9402ZM2.1167 11.171L1.62248 9.23305L0.116702 9.61705L0.116702 11.171H2.1167ZM2.1167 39.4377H4.1167H2.1167ZM22.9846 5.8493L23.4925 3.91487L22.9919 3.78343L22.4904 3.91133L22.9846 5.8493ZM43.253 11.171H45.253V9.62836L43.7609 9.23659L43.253 11.171ZM43.253 39.4377H41.253H43.253ZM39.3442 47.8802L40.592 49.4432L39.3442 47.8802ZM4.83857 49.401L21.7591 62.5207L24.2101 59.3596L7.28958 46.2399L4.83857 49.401ZM0.116702 11.171L0.116699 39.4377H4.1167L4.1167 11.171L0.116702 11.171ZM22.4904 3.91133L1.62248 9.23305L2.61092 13.109L23.4788 7.78728L22.4904 3.91133ZM43.7609 9.23659L23.4925 3.91487L22.4767 7.78374L42.7451 13.1055L43.7609 9.23659ZM45.253 39.4377L45.253 11.171L41.253 11.171L41.253 39.4377H45.253ZM24.2324 62.5032L40.592 49.4432L38.0964 46.3172L21.7368 59.3772L24.2324 62.5032ZM40.592 49.4432C43.5564 47.0767 45.253 43.3438 45.253 39.4377H41.253C41.253 42.2171 40.0421 44.764 38.0964 46.3172L40.592 49.4432ZM7.28958 46.2399C5.3394 44.7278 4.11669 42.2028 4.1167 39.4377L0.116699 39.4377C0.116693 43.3455 1.83946 47.0756 4.83856 49.401L7.28958 46.2399Z" fill="#050F11" mask="url(#path-1-outside-1_2_2205)"/>
<mask id="path-3-inside-2_2_2205" fill="white">
<path d="M22.9845 56.0308L6.06397 42.9111C3.58932 40.9924 2.11659 37.8648 2.11659 34.5283L2.1166 6.26166L22.9845 0.939941L43.2529 6.26166V13.3283V20.395V27.4617L43.2529 34.5283C43.2529 37.8711 41.7991 41.011 39.3441 42.9708L22.9845 56.0308Z"/>
</mask>
<path d="M22.9845 56.0308L6.06397 42.9111C3.58932 40.9924 2.11659 37.8648 2.11659 34.5283L2.1166 6.26166L22.9845 0.939941L43.2529 6.26166V13.3283V20.395V27.4617L43.2529 34.5283C43.2529 37.8711 41.7991 41.011 39.3441 42.9708L22.9845 56.0308Z" fill="#050F11"/>
<path d="M6.06397 42.9111L5.45121 43.7014H5.45121L6.06397 42.9111ZM22.9845 56.0308L22.3718 56.8211L22.9935 57.3032L23.6084 56.8123L22.9845 56.0308ZM2.1166 6.26166L1.86949 5.29267L1.1166 5.48467L1.1166 6.26166H2.1166ZM2.11659 34.5283H3.11659H2.11659ZM22.9845 0.939941L23.2385 -0.0272747L22.9882 -0.092995L22.7374 -0.0290459L22.9845 0.939941ZM43.2529 6.26166H44.2529V5.49033L43.5068 5.29444L43.2529 6.26166ZM43.2529 34.5283H44.2529H43.2529ZM39.3441 42.9708L39.968 43.7524L39.3441 42.9708ZM43.2529 27.4617H42.2529H43.2529ZM5.45121 43.7014L22.3718 56.8211L23.5973 55.2406L6.67672 42.1209L5.45121 43.7014ZM1.1166 6.26166L1.11659 34.5283H3.11659L3.1166 6.26166H1.1166ZM22.7374 -0.0290459L1.86949 5.29267L2.36371 7.23065L23.2316 1.90893L22.7374 -0.0290459ZM43.5068 5.29444L23.2385 -0.0272747L22.7305 1.90716L42.9989 7.22887L43.5068 5.29444ZM23.6084 56.8123L39.968 43.7524L38.7202 42.1893L22.3606 55.2493L23.6084 56.8123ZM39.968 43.7524C42.6777 41.5891 44.2529 38.1528 44.2529 34.5283H42.2529C42.2529 37.5894 40.9206 40.4328 38.7202 42.1893L39.968 43.7524ZM6.67672 42.1209C4.46431 40.4054 3.11659 37.5791 3.11659 34.5283H1.11659C1.11659 38.1505 2.71434 41.5793 5.45121 43.7014L6.67672 42.1209ZM44.2529 20.395V13.3283H42.2529V20.395H44.2529ZM44.2529 13.3283V6.26166H42.2529V13.3283H44.2529ZM44.2529 34.5283L44.2529 27.4617H42.2529L42.2529 34.5283H44.2529ZM44.2529 27.4617V20.395H42.2529V27.4617H44.2529Z" fill="#69FF93" mask="url(#path-3-inside-2_2_2205)"/>
<path d="M41.0781 25.8553L4.315 25.8553" stroke="#69FF93" stroke-miterlimit="10"/>
<path d="M22.6966 7.07539L22.6965 45.613" stroke="#69FF93" stroke-miterlimit="10"/>
<path d="M9.06149 39.1306L35.7842 12.2272" stroke="#69FF93" stroke-miterlimit="10"/>
<path d="M36.5065 39.1335L8.9523 12.1907" stroke="#69FF93" stroke-miterlimit="10"/>
<rect x="20.6052" y="5.46741" width="3" height="3" transform="rotate(-45 20.6052 5.46741)" fill="#69FF93"/>
<rect x="37.3434" y="25.848" width="3" height="3" transform="rotate(-45 37.3434 25.848)" fill="#69FF93"/>
<rect x="35.0065" y="10.2573" width="3" height="3" fill="#69FF93"/>
<rect x="7.05194" y="10.2747" width="3" height="3" fill="#69FF93"/>
<rect x="35.0065" y="37.6828" width="3" height="3" fill="#69FF93"/>
<rect x="7.05194" y="37.6332" width="3" height="3" fill="#69FF93"/>
<rect x="3.80725" y="25.848" width="3" height="3" transform="rotate(-45 3.80725 25.848)" fill="#69FF93"/>
<rect x="20.6052" y="47.0842" width="3" height="3" transform="rotate(-45 20.6052 47.0842)" fill="#69FF93"/>
<mask id="path-17-outside-3_2_2205" maskUnits="userSpaceOnUse" x="6.16245" y="9.01716" width="34.2159" height="34.2159" fill="black">
<rect fill="white" x="6.16245" y="9.01716" width="34.2159" height="34.2159"/>
<path d="M36.3252 23.7433C37.4709 31.1847 32.3673 38.146 24.9259 39.2917C17.4845 40.4375 10.5233 35.3339 9.37754 27.8925C8.23179 20.4511 13.3354 13.4898 20.7768 12.3441C28.2182 11.1983 35.1794 16.302 36.3252 23.7433Z"/>
</mask>
<path d="M36.3252 23.7433C37.4709 31.1847 32.3673 38.146 24.9259 39.2917C17.4845 40.4375 10.5233 35.3339 9.37754 27.8925C8.23179 20.4511 13.3354 13.4898 20.7768 12.3441C28.2182 11.1983 35.1794 16.302 36.3252 23.7433Z" fill="#050F11"/>
<path d="M36.8194 23.6672C36.7626 23.2983 36.6919 22.9349 36.6081 22.5773L35.6345 22.8056C35.7125 23.138 35.7781 23.4761 35.831 23.8194L36.8194 23.6672ZM35.9342 20.4645C35.6517 19.7727 35.3172 19.1111 34.936 18.4836L34.0813 19.0027C34.4354 19.5855 34.7461 20.2 35.0083 20.8424L35.9342 20.4645ZM33.6386 16.6845C33.1586 16.1185 32.6357 15.5925 32.076 15.1108L31.4237 15.8687C31.944 16.3165 32.4299 16.8054 32.876 17.3313L33.6386 16.6845ZM30.2877 13.7997C29.6599 13.4108 29.001 13.0704 28.3169 12.7828L27.9294 13.7047C28.5651 13.9719 29.1775 14.2883 29.7612 14.6498L30.2877 13.7997ZM26.2108 12.0867C25.4977 11.912 24.7661 11.7919 24.0214 11.7307L23.9395 12.7273C24.631 12.7842 25.3105 12.8957 25.9728 13.058L26.2108 12.0867ZM21.8037 11.7235C21.4375 11.7511 21.0696 11.7931 20.7007 11.8499L20.8529 12.8383C21.1962 12.7854 21.5384 12.7463 21.8789 12.7207L21.8037 11.7235ZM20.7007 11.8499C20.3318 11.9067 19.9683 11.9773 19.6108 12.0611L19.8391 13.0347C20.1715 12.9568 20.5096 12.8911 20.8529 12.8383L20.7007 11.8499ZM17.4979 12.7351C16.8062 13.0175 16.1445 13.3521 15.517 13.7333L16.0362 14.5879C16.619 14.2339 17.2335 13.9232 17.8759 13.6609L17.4979 12.7351ZM13.7179 15.0306C13.152 15.5107 12.626 16.0335 12.1442 16.5932L12.9021 17.2456C13.35 16.7253 13.8389 16.2393 14.3648 15.7932L13.7179 15.0306ZM10.8331 18.3815C10.4443 19.0093 10.1039 19.6682 9.81629 20.3524L10.7382 20.7399C11.0054 20.1042 11.3218 19.4917 11.6833 18.9081L10.8331 18.3815ZM9.12019 22.4584C8.94544 23.1715 8.82541 23.9032 8.76416 24.6478L9.76079 24.7298C9.81767 24.0382 9.92915 23.3587 10.0915 22.6964L9.12019 22.4584ZM8.75697 26.8656C8.78457 27.2318 8.82656 27.5996 8.88336 27.9686L9.87172 27.8164C9.81885 27.473 9.7798 27.1309 9.75414 26.7904L8.75697 26.8656ZM8.88336 27.9686C8.94017 28.3375 9.01078 28.7009 9.09461 29.0585L10.0682 28.8302C9.99027 28.4978 9.92458 28.1597 9.87172 27.8164L8.88336 27.9686ZM9.76858 31.1713C10.051 31.8631 10.3855 32.5247 10.7667 33.1522L11.6214 32.6331C11.2674 32.0503 10.9567 31.4358 10.6944 30.7934L9.76858 31.1713ZM12.0641 34.9513C12.5442 35.5173 13.067 36.0433 13.6267 36.525L14.2791 35.7671C13.7587 35.3193 13.2728 34.8304 12.8267 34.3045L12.0641 34.9513ZM15.415 37.8361C16.0428 38.225 16.7017 38.5654 17.3859 38.853L17.7734 37.9311C17.1376 37.6639 16.5252 37.3475 15.9415 36.986L15.415 37.8361ZM19.4919 39.5491C20.205 39.7238 20.9366 39.8439 21.6813 39.9051L21.7633 38.9085C21.0717 38.8516 20.3922 38.7401 19.7299 38.5778L19.4919 39.5491ZM23.899 39.9123C24.2652 39.8847 24.6331 39.8427 25.002 39.7859L24.8498 38.7975C24.5065 38.8504 24.1643 38.8895 23.8239 38.9151L23.899 39.9123ZM25.002 39.7859C25.3709 39.7291 25.7344 39.6585 26.0919 39.5747L25.8637 38.6011C25.5313 38.679 25.1932 38.7447 24.8498 38.7975L25.002 39.7859ZM28.2048 38.9007C28.8965 38.6183 29.5582 38.2837 30.1857 37.9025L29.6665 37.0479C29.0837 37.4019 28.4693 37.7126 27.8268 37.9749L28.2048 38.9007ZM31.9848 36.6052C32.5507 36.1251 33.0767 35.6023 33.5585 35.0426L32.8006 34.3902C32.3527 34.9105 31.8638 35.3965 31.3379 35.8426L31.9848 36.6052ZM34.8696 33.2543C35.2585 32.6265 35.5988 31.9676 35.8864 31.2834L34.9646 30.8959C34.6973 31.5316 34.381 32.1441 34.0195 32.7277L34.8696 33.2543ZM36.5825 29.1774C36.7573 28.4643 36.8773 27.7326 36.9386 26.988L35.9419 26.906C35.8851 27.5976 35.7736 28.2771 35.6113 28.9394L36.5825 29.1774ZM36.9458 24.7702C36.9182 24.404 36.8762 24.0362 36.8194 23.6672L35.831 23.8194C35.8839 24.1628 35.9229 24.5049 35.9486 24.8454L36.9458 24.7702ZM37.3135 23.5912C37.2548 23.2095 37.1817 22.8333 37.0949 22.4632L35.1477 22.9197C35.2227 23.2396 35.2859 23.565 35.3368 23.8955L37.3135 23.5912ZM36.3971 20.2755C36.1046 19.5591 35.7581 18.8738 35.3633 18.224L33.654 19.2623C33.9944 19.8228 34.2932 20.4137 34.5454 21.0314L36.3971 20.2755ZM34.0199 16.361C33.5229 15.7751 32.9816 15.2305 32.4022 14.7318L31.0975 16.2476C31.5981 16.6785 32.0656 17.1489 32.4947 17.6548L34.0199 16.361ZM30.551 13.3746C29.9011 12.9721 29.219 12.6197 28.5106 12.3219L27.7356 14.1656C28.3471 14.4227 28.9363 14.7271 29.4979 15.0749L30.551 13.3746ZM26.3299 11.6011C25.5914 11.4201 24.8336 11.2958 24.0624 11.2324L23.8985 13.2256C24.5635 13.2803 25.2169 13.3875 25.8538 13.5436L26.3299 11.6011ZM21.7661 11.2249C21.387 11.2535 21.0063 11.297 20.6246 11.3557L20.929 13.3324C21.2595 13.2815 21.5889 13.244 21.9165 13.2193L21.7661 11.2249ZM20.6246 11.3557C20.2429 11.4145 19.8668 11.4876 19.4966 11.5744L19.9532 13.5215C20.273 13.4466 20.5984 13.3833 20.929 13.3324L20.6246 11.3557ZM17.3089 12.2722C16.5926 12.5647 15.9073 12.9112 15.2574 13.3059L16.2958 15.0153C16.8562 14.6748 17.4471 14.3761 18.0649 14.1238L17.3089 12.2722ZM13.3945 14.6493C12.8085 15.1464 12.264 15.6876 11.7653 16.267L13.2811 17.5718C13.712 17.0712 14.1823 16.6036 14.6882 16.1745L13.3945 14.6493ZM10.4081 18.1182C10.0055 18.7681 9.65313 19.4503 9.35536 20.1586L11.1991 20.9337C11.4562 20.3221 11.7605 19.7329 12.1083 19.1714L10.4081 18.1182ZM8.63456 22.3394C8.45358 23.0779 8.32927 23.8357 8.26584 24.6068L10.2591 24.7708C10.3138 24.1058 10.421 23.4524 10.5771 22.8155L8.63456 22.3394ZM8.25838 26.9031C8.28696 27.2822 8.33042 27.6629 8.38919 28.0446L10.3659 27.7403C10.315 27.4097 10.2774 27.0804 10.2527 26.7528L8.25838 26.9031ZM8.38919 28.0446C8.44796 28.4263 8.52103 28.8025 8.60782 29.1726L10.555 28.7161C10.48 28.3962 10.4168 28.0708 10.3659 27.7403L8.38919 28.0446ZM9.30567 31.3603C9.59815 32.0767 9.94464 32.762 10.3394 33.4118L12.0487 32.3735C11.7083 31.813 11.4095 31.2221 11.1573 30.6044L9.30567 31.3603ZM11.6828 35.2748C12.1798 35.8607 12.7211 36.4053 13.3005 36.904L14.6052 35.3882C14.1046 34.9573 13.6371 34.4869 13.208 33.981L11.6828 35.2748ZM15.1517 38.2612C15.8016 38.6637 16.4838 39.0161 17.1921 39.3139L17.9671 37.4702C17.3556 37.2131 16.7664 36.9087 16.2048 36.5609L15.1517 38.2612ZM19.3729 40.0347C20.1114 40.2157 20.8691 40.34 21.6403 40.4034L21.8043 38.4102C21.1392 38.3555 20.4858 38.2483 19.8489 38.0922L19.3729 40.0347ZM23.9366 40.4109C24.3157 40.3823 24.6964 40.3388 25.0781 40.2801L24.7738 38.3034C24.4432 38.3543 24.1139 38.3918 23.7863 38.4165L23.9366 40.4109ZM25.0781 40.2801C25.4598 40.2213 25.836 40.1482 26.2061 40.0615L25.7495 38.1143C25.4297 38.1892 25.1043 38.2525 24.7738 38.3034L25.0781 40.2801ZM28.3938 39.3636C29.1102 39.0711 29.7954 38.7246 30.4453 38.3299L29.407 36.6205C28.8465 36.961 28.2556 37.2597 27.6378 37.512L28.3938 39.3636ZM32.3082 36.9865C32.8942 36.4894 33.4387 35.9482 33.9375 35.3688L32.4217 34.064C31.9907 34.5646 31.5204 35.0322 31.0145 35.4613L32.3082 36.9865ZM35.2947 33.5176C35.6972 32.8677 36.0496 32.1855 36.3474 31.4772L34.5036 30.7021C34.2466 31.3137 33.9422 31.9029 33.5944 32.4644L35.2947 33.5176ZM37.0682 29.2964C37.2491 28.5579 37.3735 27.8001 37.4369 27.029L35.4436 26.865C35.3889 27.53 35.2817 28.1834 35.1256 28.8203L37.0682 29.2964ZM37.4443 24.7327C37.4158 24.3536 37.3723 23.9729 37.3135 23.5912L35.3368 23.8955C35.3877 24.2261 35.4253 24.5554 35.45 24.883L37.4443 24.7327Z" fill="#69FF93" mask="url(#path-17-outside-3_2_2205)"/>
<mask id="path-19-outside-4_2_2205" maskUnits="userSpaceOnUse" x="11.8514" y="14.8198" width="22" height="22" fill="black">
<rect fill="white" x="11.8514" y="14.8198" width="22" height="22"/>
<path d="M32.8514 25.8198C32.8514 31.3427 28.3742 35.8198 22.8514 35.8198C17.3285 35.8198 12.8514 31.3427 12.8514 25.8198C12.8514 20.297 17.3285 15.8198 22.8514 15.8198C28.3742 15.8198 32.8514 20.297 32.8514 25.8198Z"/>
</mask>
<path d="M32.8514 25.8198C32.8514 31.3427 28.3742 35.8198 22.8514 35.8198C17.3285 35.8198 12.8514 31.3427 12.8514 25.8198C12.8514 20.297 17.3285 15.8198 22.8514 15.8198C28.3742 15.8198 32.8514 20.297 32.8514 25.8198Z" fill="#050F11"/>
<path d="M31.8514 25.8198C31.8514 30.7904 27.8219 34.8198 22.8514 34.8198V36.8198C28.9265 36.8198 33.8514 31.895 33.8514 25.8198H31.8514ZM22.8514 34.8198C17.8808 34.8198 13.8514 30.7904 13.8514 25.8198H11.8514C11.8514 31.895 16.7762 36.8198 22.8514 36.8198V34.8198ZM13.8514 25.8198C13.8514 20.8493 17.8808 16.8198 22.8514 16.8198V14.8198C16.7762 14.8198 11.8514 19.7447 11.8514 25.8198H13.8514ZM22.8514 16.8198C27.8219 16.8198 31.8514 20.8493 31.8514 25.8198H33.8514C33.8514 19.7447 28.9265 14.8198 22.8514 14.8198V16.8198Z" fill="#69FF93" mask="url(#path-19-outside-4_2_2205)"/>
<path d="M21.8229 23.5649L22.2427 23.0051L16.8931 19.9675L18.7506 23.2395L21.8229 23.5649Z" fill="white"/>
<path d="M28.8097 19.9675L25.5377 21.8254L25.2123 24.8973L25.7721 25.3175L28.8097 19.9675Z" fill="white"/>
<path d="M16.8931 31.8841L20.1647 30.0265L20.4905 26.9543L19.9307 26.5345L16.8931 31.8841Z" fill="white"/>
<path d="M23.8799 28.2867L23.46 28.8465L28.8097 31.8841L26.9521 28.6125L23.8799 28.2867Z" fill="white"/>
<path d="M23.8908 25.4732L24.209 22.4728L22.3985 24.8864L19.3984 24.5685L21.812 26.3787L21.4937 29.3788L23.3043 26.9656L26.3043 27.2834L23.8908 25.4732Z" fill="white"/>
</svg>
