<svg width="19" height="18" viewBox="0 0 19 18" fill="none" xmlns="http://www.w3.org/2000/svg">
<path d="M9.34949 16.5C5.20724 16.5 1.84949 13.1422 1.84949 9C1.84949 4.85775 5.20724 1.5 9.34949 1.5C13.4917 1.5 16.8495 4.85775 16.8495 9C16.8495 13.1422 13.4917 16.5 9.34949 16.5ZM9.34949 15C10.9408 15 12.4669 14.3679 13.5921 13.2426C14.7173 12.1174 15.3495 10.5913 15.3495 9C15.3495 7.4087 14.7173 5.88258 13.5921 4.75736C12.4669 3.63214 10.9408 3 9.34949 3C7.75819 3 6.23206 3.63214 5.10685 4.75736C3.98163 5.88258 3.34949 7.4087 3.34949 9C3.34949 10.5913 3.98163 12.1174 5.10685 13.2426C6.23206 14.3679 7.75819 15 9.34949 15V15ZM8.59949 11.25H10.0995V12.75H8.59949V11.25ZM8.59949 5.25H10.0995V9.75H8.59949V5.25Z" fill="#A7A7A7"/>
</svg>
