<svg width="155" height="134" viewBox="0 0 155 134" fill="none" xmlns="http://www.w3.org/2000/svg">
<path d="M0.113249 74.7327L3 77.6194L5.88675 74.7327L3 71.8459L0.113249 74.7327ZM51.3481 74.7327L48.4614 71.8459L45.5746 74.7327L48.4614 77.6194L51.3481 74.7327ZM3 75.2327L48.4614 75.2327L48.4614 74.2327L3 74.2327L3 75.2327Z" fill="#455E4C"/>
<path d="M41.009 38.4416L35.7858 36.5937L39.8683 32.5112L41.7161 37.7345L41.009 38.4416ZM41.3626 37.3809L59.7866 55.8049L59.0794 56.512L40.6555 38.088L41.3626 37.3809Z" fill="#455E4C"/>
<path d="M41.7161 111.736L39.8683 116.959L35.7858 112.877L41.009 111.029L41.7161 111.736ZM59.7866 93.6658L41.3626 112.09L40.6555 111.383L59.0794 92.9587L59.7866 93.6658Z" fill="#455E4C"/>
<path d="M29.7436 55.849L24.214 56.1965L26.3695 50.8404L30.1169 54.9213L29.7436 55.849ZM29.653 54.7346L53.8246 64.4622L53.4513 65.3899L29.2797 55.6623L29.653 54.7346Z" fill="#455E4C"/>
<path d="M59.1245 123.002L59.472 128.531L54.1159 126.376L58.1968 122.628L59.1245 123.002ZM68.6654 99.2938L58.9378 123.465L58.0101 123.092L67.7377 98.9205L68.6654 99.2938Z" fill="#455E4C"/>
<path d="M57.2333 27.2512L53.0775 23.587L58.3889 21.3237L58.1532 26.8592L57.2333 27.2512ZM57.9572 26.3992L68.1711 50.3688L67.2511 50.7609L57.0373 26.7912L57.9572 26.3992Z" fill="#455E4C"/>
<path d="M30.5261 95.5099L26.8619 99.6657L24.5987 94.3543L30.1341 94.59L30.5261 95.5099ZM54.0358 85.4921L30.0661 95.7059L29.6741 94.786L53.6438 84.5721L54.0358 85.4921Z" fill="#455E4C"/>
<path d="M27.1903 64.5523L21.8059 65.8581L22.9951 60.2084L27.3963 63.5738L27.1903 64.5523ZM26.907 63.4708L52.4032 68.8371L52.1972 69.8157L26.701 64.4493L26.907 63.4708Z" fill="#455E4C"/>
<path d="M67.8263 125.552L69.1322 130.937L63.4824 129.748L66.8477 125.346L67.8263 125.552ZM73.0888 100.545L67.7233 126.041L66.7447 125.836L72.1102 100.339L73.0888 100.545Z" fill="#455E4C"/>
<path d="M49.2755 31.5993L44.5448 28.7154L49.3805 25.5612L50.1131 31.053L49.2755 31.5993ZM49.8399 30.6342L64.0746 52.4576L63.237 53.0039L49.0023 31.1806L49.8399 30.6342Z" fill="#455E4C"/>
<path d="M34.8745 103.469L31.9907 108.199L28.8364 103.364L34.3282 102.631L34.8745 103.469ZM56.2781 89.5071L34.4557 103.742L33.9094 102.904L55.7318 88.6696L56.2781 89.5071Z" fill="#455E4C"/>
<path d="M34.6671 46.3126L29.1845 45.5139L32.3968 40.7165L35.2235 45.4816L34.6671 46.3126ZM34.808 45.2034L56.4578 59.7L55.9014 60.5309L34.2516 46.0344L34.808 45.2034Z" fill="#455E4C"/>
<path d="M49.59 118.077L48.7913 123.56L43.9939 120.347L48.759 117.521L49.59 118.077ZM63.8083 96.8426L49.3118 118.492L48.4808 117.936L62.9774 96.2862L63.8083 96.8426Z" fill="#455E4C"/>
<path d="M67.4568 23.991L64.1448 19.5494L69.8085 18.4287L68.4377 23.7969L67.4568 23.991ZM68.3407 23.3064L73.3984 48.8661L72.4174 49.0602L67.3597 23.5005L68.3407 23.3064Z" fill="#455E4C"/>
<path d="M27.266 85.2856L22.8245 88.5977L21.7036 82.934L27.0718 84.3047L27.266 85.2856ZM52.3352 80.3242L26.7755 85.3827L26.5813 84.4017L52.141 79.3432L52.3352 80.3242Z" fill="#455E4C"/>
<path d="M154.092 74.7327L151.206 71.846L148.319 74.7327L151.206 77.6195L154.092 74.7327ZM101.62 74.7327L104.507 77.6195L107.394 74.7327L104.507 71.846L101.62 74.7327ZM151.206 74.2327H104.507V75.2327H151.206V74.2327Z" fill="#455E4C"/>
<path d="M78.03 133.619L80.9167 130.733L78.03 127.846L75.1432 130.733L78.03 133.619ZM77.5299 102.164L77.53 130.733L78.53 130.733L78.5299 102.164L77.5299 102.164Z" fill="#455E4C"/>
<path d="M115.01 38.4398L120.234 36.5919L116.151 32.5095L114.303 37.7327L115.01 38.4398ZM114.657 37.3791L96.2329 55.8031L96.94 56.5102L115.364 38.0862L114.657 37.3791Z" fill="#455E4C"/>
<path d="M114.303 111.734L116.151 116.958L120.234 112.875L115.01 111.027L114.303 111.734ZM96.2329 93.6639L114.657 112.088L115.364 111.381L96.94 92.9568L96.2329 93.6639Z" fill="#455E4C"/>
<path d="M126.275 55.849L131.805 56.1965L129.649 50.8405L125.902 54.9213L126.275 55.849ZM126.366 54.7347L102.194 64.4622L102.568 65.3899L126.739 55.6624L126.366 54.7347Z" fill="#455E4C"/>
<path d="M96.8942 123L96.5467 128.529L101.903 126.374L97.8219 122.626L96.8942 123ZM87.3533 99.2919L97.0809 123.463L98.0086 123.09L88.281 98.9185L87.3533 99.2919Z" fill="#455E4C"/>
<path d="M98.7851 27.251L102.941 23.5869L97.6295 21.3236L97.8651 26.859L98.7851 27.251ZM98.0611 26.399L87.8473 50.3687L88.7673 50.7607L98.9811 26.7911L98.0611 26.399Z" fill="#455E4C"/>
<path d="M125.493 95.508L129.157 99.6638L131.42 94.3524L125.885 94.588L125.493 95.508ZM101.983 85.4902L125.953 95.704L126.345 94.784L102.375 84.5702L101.983 85.4902Z" fill="#455E4C"/>
<path d="M128.828 64.5487L134.212 65.8544L133.023 60.2047L128.622 63.5701L128.828 64.5487ZM129.111 63.4671L103.615 68.8335L103.821 69.812L129.317 64.4457L129.111 63.4671Z" fill="#455E4C"/>
<path d="M88.193 125.55L86.8871 130.935L92.5369 129.746L89.1716 125.344L88.193 125.55ZM82.9305 100.543L88.296 126.04L89.2746 125.834L83.9091 100.337L82.9305 100.543Z" fill="#455E4C"/>
<path d="M106.744 31.5974L111.475 28.7135L106.639 25.5593L105.906 31.0511L106.744 31.5974ZM106.179 30.6323L91.9447 52.4556L92.7823 53.0019L107.017 31.1786L106.179 30.6323Z" fill="#455E4C"/>
<path d="M121.144 103.469L124.028 108.199L127.183 103.364L121.691 102.631L121.144 103.469ZM99.7409 89.5072L121.563 103.742L122.11 102.904L100.287 88.6696L99.7409 89.5072Z" fill="#455E4C"/>
<path d="M121.352 46.3126L126.834 45.5139L123.622 40.7165L120.795 45.4816L121.352 46.3126ZM121.211 45.2035L99.5612 59.7L100.118 60.531L121.767 46.0344L121.211 45.2035Z" fill="#455E4C"/>
<path d="M106.43 118.075L107.228 123.558L112.026 120.345L107.26 117.519L106.43 118.075ZM92.2112 96.8408L106.708 118.491L107.539 117.934L93.0421 96.2844L92.2112 96.8408Z" fill="#455E4C"/>
<path d="M88.5617 23.9891L91.8737 19.5475L86.21 18.4268L87.5807 23.795L88.5617 23.9891ZM87.6778 23.3045L82.6201 48.8641L83.6011 49.0583L88.6588 23.4986L87.6778 23.3045Z" fill="#455E4C"/>
<path d="M128.753 85.2855L133.194 88.5976L134.315 82.9339L128.947 84.3045L128.753 85.2855ZM103.684 80.324L129.243 85.3826L129.438 84.4016L103.878 79.3431L103.684 80.324Z" fill="#455E4C"/>
<path d="M78.0096 0.113255L75.1228 3.00001L78.0096 5.88676L80.8963 3.00001L78.0096 0.113255ZM78.0096 129.619L80.8963 126.733L78.0096 123.846L75.1228 126.733L78.0096 129.619ZM77.5096 3.00001L77.5096 126.733L78.5096 126.733L78.5096 3.00001L77.5096 3.00001Z" fill="#455E4C"/>
</svg>
