<svg width="47" height="64" viewBox="0 0 47 64" fill="none" xmlns="http://www.w3.org/2000/svg">
<mask id="path-1-outside-1_2_2037" maskUnits="userSpaceOnUse" x="0.929443" y="2.84882" width="46" height="61" fill="black">
<rect fill="white" x="0.929443" y="2.84882" width="46" height="61"/>
<path d="M23.7974 60.9397L6.87682 47.82C4.40217 45.9012 2.92944 42.7737 2.92944 39.4372L2.92945 11.1705L23.7974 5.84882L44.0657 11.1705L44.0657 39.4372C44.0657 42.78 42.612 45.9198 40.157 47.8797L23.7974 60.9397Z"/>
</mask>
<path d="M23.7974 60.9397L6.87682 47.82C4.40217 45.9012 2.92944 42.7737 2.92944 39.4372L2.92945 11.1705L23.7974 5.84882L44.0657 11.1705L44.0657 39.4372C44.0657 42.78 42.612 45.9198 40.157 47.8797L23.7974 60.9397Z" fill="#455D4C"/>
<path d="M6.87682 47.82L5.65131 49.4005L5.65131 49.4005L6.87682 47.82ZM23.7974 60.9397L22.5719 62.5202L23.8154 63.4844L25.0451 62.5027L23.7974 60.9397ZM2.92945 11.1705L2.43523 9.23256L0.929447 9.61656L0.929446 11.1705L2.92945 11.1705ZM2.92944 39.4372L4.92944 39.4372L4.92944 39.4372L2.92944 39.4372ZM23.7974 5.84882L24.3053 3.91438L23.8047 3.78294L23.3031 3.91084L23.7974 5.84882ZM44.0657 11.1705L46.0657 11.1705L46.0657 9.62787L44.5736 9.2361L44.0657 11.1705ZM44.0657 39.4372L42.0657 39.4372L42.0657 39.4372L44.0657 39.4372ZM40.157 47.8797L41.4047 49.4427L41.4047 49.4427L40.157 47.8797ZM5.65131 49.4005L22.5719 62.5202L25.0229 59.3592L8.10233 46.2395L5.65131 49.4005ZM0.929446 11.1705L0.929443 39.4372L4.92944 39.4372L4.92945 11.1705L0.929446 11.1705ZM23.3031 3.91084L2.43523 9.23256L3.42367 13.1085L24.2916 7.78679L23.3031 3.91084ZM44.5736 9.2361L24.3053 3.91438L23.2894 7.78325L43.5578 13.105L44.5736 9.2361ZM46.0657 39.4372L46.0657 11.1705L42.0657 11.1705L42.0657 39.4372L46.0657 39.4372ZM25.0451 62.5027L41.4047 49.4427L38.9092 46.3167L22.5496 59.3767L25.0451 62.5027ZM41.4047 49.4427C44.3692 47.0762 46.0657 43.3433 46.0657 39.4372L42.0657 39.4372C42.0657 42.2166 40.8548 44.7635 38.9092 46.3167L41.4047 49.4427ZM8.10233 46.2395C6.15214 44.7273 4.92944 42.2023 4.92944 39.4372L0.929443 39.4372C0.929437 43.3451 2.65221 47.0751 5.65131 49.4005L8.10233 46.2395Z" fill="#050F11" mask="url(#path-1-outside-1_2_2037)"/>
<mask id="path-3-inside-2_2_2037" fill="white">
<path d="M23.7973 56.0303L6.87673 42.9106C4.40208 40.9919 2.92935 37.8643 2.92935 34.5279L2.92935 6.26117L23.7973 0.939453L44.0656 6.26117V13.3278V20.3945V27.4612L44.0656 34.5279C44.0656 37.8706 42.6119 41.0105 40.1569 42.9704L23.7973 56.0303Z"/>
</mask>
<path d="M23.7973 56.0303L6.87673 42.9106C4.40208 40.9919 2.92935 37.8643 2.92935 34.5279L2.92935 6.26117L23.7973 0.939453L44.0656 6.26117V13.3278V20.3945V27.4612L44.0656 34.5279C44.0656 37.8706 42.6119 41.0105 40.1569 42.9704L23.7973 56.0303Z" fill="#050F11"/>
<path d="M6.87673 42.9106L6.26397 43.7009L6.26397 43.7009L6.87673 42.9106ZM23.7973 56.0303L23.1845 56.8206L23.8063 57.3027L24.4212 56.8119L23.7973 56.0303ZM2.92935 6.26117L2.68224 5.29218L1.92935 5.48418L1.92935 6.26117L2.92935 6.26117ZM2.92935 34.5279L3.92935 34.5279L3.92935 34.5279L2.92935 34.5279ZM23.7973 0.939453L24.0512 -0.0277629L23.8009 -0.0934833L23.5502 -0.0295342L23.7973 0.939453ZM44.0656 6.26117H45.0656V5.48984L44.3196 5.29395L44.0656 6.26117ZM44.0656 34.5279L45.0656 34.5279L45.0656 34.5279L44.0656 34.5279ZM40.1569 42.9704L40.7807 43.7519L40.7807 43.7519L40.1569 42.9704ZM44.0656 27.4612L43.0656 27.4612L43.0656 27.4612L44.0656 27.4612ZM6.26397 43.7009L23.1845 56.8206L24.41 55.2401L7.48948 42.1204L6.26397 43.7009ZM1.92935 6.26117L1.92935 34.5279L3.92935 34.5279L3.92935 6.26117L1.92935 6.26117ZM23.5502 -0.0295342L2.68224 5.29218L3.17647 7.23016L24.0444 1.90844L23.5502 -0.0295342ZM44.3196 5.29395L24.0512 -0.0277629L23.5433 1.90667L43.8117 7.22839L44.3196 5.29395ZM24.4212 56.8119L40.7807 43.7519L39.533 42.1888L23.1734 55.2488L24.4212 56.8119ZM40.7807 43.7519C43.4905 41.5887 45.0656 38.1523 45.0656 34.5279L43.0656 34.5279C43.0656 37.5889 41.7333 40.4323 39.533 42.1888L40.7807 43.7519ZM7.48948 42.1204C5.27706 40.4049 3.92935 37.5786 3.92935 34.5279L1.92935 34.5278C1.92935 38.15 3.5271 41.5788 6.26397 43.7009L7.48948 42.1204ZM45.0656 20.3945V13.3278H43.0656V20.3945H45.0656ZM45.0656 13.3278V6.26117H43.0656V13.3278H45.0656ZM45.0656 34.5279L45.0656 27.4612L43.0656 27.4612L43.0656 34.5279L45.0656 34.5279ZM45.0656 27.4612V20.3945H43.0656V27.4612H45.0656Z" fill="#69FF93" mask="url(#path-3-inside-2_2_2037)"/>
<rect x="21.4179" y="9.47107" width="3" height="3" transform="rotate(-45 21.4179 9.47107)" fill="#69FF93"/>
<rect x="37.4055" y="26.2035" width="3" height="3" transform="rotate(-45 37.4055 26.2035)" fill="#69FF93"/>
<rect x="34.6939" y="11.8636" width="3" height="3" fill="#69FF93"/>
<rect x="8.86264" y="11.8636" width="3" height="3" fill="#69FF93"/>
<rect x="34.6939" y="36.8597" width="3" height="3" fill="#69FF93"/>
<rect x="8.86264" y="36.8597" width="3" height="3" fill="#69FF93"/>
<rect x="5.41678" y="26.2035" width="3" height="3" transform="rotate(-45 5.41678 26.2035)" fill="#69FF93"/>
<rect x="21.4179" y="43.1859" width="3" height="3" transform="rotate(-45 21.4179 43.1859)" fill="#69FF93"/>
<mask id="path-13-outside-3_2_2037" maskUnits="userSpaceOnUse" x="9.82187" y="12.3105" width="28.6467" height="28.6467" fill="black">
<rect fill="white" x="9.82187" y="12.3105" width="28.6467" height="28.6467"/>
<path d="M36.1905 25.8819C36.3522 32.8 30.8751 38.5394 23.957 38.7011C17.0389 38.8628 11.2995 33.3857 11.1378 26.4676C10.9761 19.5495 16.4532 13.8101 23.3713 13.6484C30.2894 13.4867 36.0288 18.9638 36.1905 25.8819Z"/>
</mask>
<path d="M36.1905 25.8819C36.3522 32.8 30.8751 38.5394 23.957 38.7011C17.0389 38.8628 11.2995 33.3857 11.1378 26.4676C10.9761 19.5495 16.4532 13.8101 23.3713 13.6484C30.2894 13.4867 36.0288 18.9638 36.1905 25.8819Z" fill="#050F11"/>
<path d="M36.6904 25.8702C36.6823 25.5262 36.661 25.1855 36.6269 24.8487L35.632 24.9494C35.6635 25.2606 35.6832 25.5754 35.6906 25.8936L36.6904 25.8702ZM36.2621 22.8368C36.0862 22.1707 35.859 21.526 35.5852 20.9069L34.6706 21.3115C34.9233 21.8827 35.1329 22.4776 35.2952 23.0921L36.2621 22.8368ZM34.613 19.1077C34.2415 18.5332 33.8261 17.9901 33.3717 17.4831L32.6269 18.1505C33.0467 18.6188 33.4303 19.1203 33.7734 19.6508L34.613 19.1077ZM31.8927 16.0717C31.365 15.6415 30.8031 15.2519 30.2118 14.9076L29.7086 15.7717C30.2545 16.0896 30.7734 16.4494 31.2608 16.8468L31.8927 16.0717ZM28.3691 14.0206C27.738 13.776 27.0833 13.5792 26.4098 13.4346L26.1999 14.4123C26.8213 14.5457 27.4254 14.7273 28.0078 14.953L28.3691 14.0206ZM24.383 13.1642C24.045 13.1459 23.7036 13.1405 23.3596 13.1485L23.383 14.1483C23.7012 14.1408 24.0166 14.1458 24.3289 14.1627L24.383 13.1642ZM23.3596 13.1485C23.0156 13.1566 22.6749 13.1779 22.3381 13.212L22.4388 14.2069C22.75 14.1754 23.0649 14.1557 23.383 14.1483L23.3596 13.1485ZM20.3262 13.5768C19.6601 13.7527 19.0154 13.9799 18.3963 14.2537L18.8009 15.1683C19.3721 14.9156 19.967 14.706 20.5815 14.5437L20.3262 13.5768ZM16.5971 15.2258C16.0226 15.5974 15.4795 16.0128 14.9725 16.4672L15.6399 17.2119C16.1082 16.7922 16.6097 16.4086 17.1402 16.0655L16.5971 15.2258ZM13.5611 17.9462C13.1309 18.4739 12.7413 19.0358 12.397 19.6271L13.2611 20.1303C13.579 19.5844 13.9388 19.0655 14.3362 18.578L13.5611 17.9462ZM11.51 21.4697C11.2654 22.1009 11.0686 22.7556 10.924 23.4291L11.9017 23.639C12.0351 23.0175 12.2167 22.4135 12.4424 21.8311L11.51 21.4697ZM10.6536 25.4558C10.6353 25.7939 10.6299 26.1352 10.6379 26.4793L11.6377 26.4559C11.6302 26.1377 11.6352 25.8223 11.6521 25.51L10.6536 25.4558ZM10.6379 26.4793C10.646 26.8233 10.6673 27.164 10.7014 27.5008L11.6963 27.4001C11.6648 27.0889 11.6451 26.774 11.6377 26.4559L10.6379 26.4793ZM11.0662 29.5127C11.2421 30.1787 11.4693 30.8235 11.7431 31.4426L12.6577 31.038C12.405 30.4668 12.1954 29.8719 12.0331 29.2573L11.0662 29.5127ZM12.7152 33.2418C13.0868 33.8163 13.5022 34.3594 13.9566 34.8664L14.7013 34.199C14.2816 33.7307 13.898 33.2291 13.5549 32.6987L12.7152 33.2418ZM15.4356 36.2778C15.9633 36.708 16.5252 37.0976 17.1165 37.4419L17.6197 36.5778C17.0738 36.2599 16.5549 35.9001 16.0674 35.5027L15.4356 36.2778ZM18.9591 38.3289C19.5903 38.5735 20.245 38.7703 20.9185 38.9149L21.1284 37.9372C20.507 37.8037 19.9029 37.6222 19.3205 37.3965L18.9591 38.3289ZM22.9452 39.1853C23.2833 39.2036 23.6246 39.209 23.9687 39.2009L23.9453 38.2012C23.6271 38.2087 23.3117 38.2037 22.9994 38.1868L22.9452 39.1853ZM23.9687 39.2009C24.3127 39.1929 24.6534 39.1716 24.9902 39.1375L24.8895 38.1426C24.5783 38.1741 24.2634 38.1938 23.9453 38.2012L23.9687 39.2009ZM27.0021 38.7727C27.6681 38.5968 28.3129 38.3696 28.932 38.0957L28.5274 37.1812C27.9562 37.4339 27.3613 37.6435 26.7468 37.8058L27.0021 38.7727ZM30.7312 37.1236C31.3057 36.7521 31.8488 36.3366 32.3558 35.8823L31.6884 35.1375C31.2201 35.5573 30.7185 35.9409 30.1881 36.284L30.7312 37.1236ZM33.7672 34.4033C34.1974 33.8756 34.587 33.3137 34.9313 32.7224L34.0672 32.2192C33.7493 32.7651 33.3895 33.284 32.9921 33.7714L33.7672 34.4033ZM35.8183 30.8797C36.0629 30.2486 36.2597 29.5939 36.4043 28.9204L35.4266 28.7105C35.2931 29.3319 35.1116 29.936 34.8859 30.5184L35.8183 30.8797ZM36.6747 26.8936C36.693 26.5555 36.6984 26.2142 36.6904 25.8702L35.6906 25.8936C35.6981 26.2117 35.6931 26.5272 35.6762 26.8395L36.6747 26.8936ZM37.1902 25.8585C37.1819 25.5016 37.1598 25.148 37.1243 24.7983L35.1345 24.9998C35.1647 25.2981 35.1836 25.6001 35.1908 25.9053L37.1902 25.8585ZM36.7455 22.7091C36.5628 22.0173 36.3268 21.3476 36.0424 20.7047L34.2134 21.5137C34.4555 22.061 34.6563 22.631 34.8118 23.2198L36.7455 22.7091ZM35.0329 18.8362C34.6471 18.2396 34.2157 17.6758 33.744 17.1494L32.2546 18.4841C32.657 18.9331 33.0247 19.4139 33.3535 19.9223L35.0329 18.8362ZM32.2086 15.6841C31.6608 15.2375 31.0774 14.833 30.4634 14.4755L29.457 16.2038C29.9802 16.5085 30.4776 16.8533 30.9449 17.2343L32.2086 15.6841ZM28.5498 13.5544C27.8943 13.3003 27.2143 13.0959 26.5147 12.9457L26.0949 14.9012C26.6904 15.029 27.2691 15.203 27.8271 15.4192L28.5498 13.5544ZM24.4101 12.6649C24.0591 12.6459 23.7049 12.6403 23.3479 12.6487L23.3947 14.6481C23.6999 14.641 24.0024 14.6458 24.3019 14.662L24.4101 12.6649ZM23.3479 12.6487C22.991 12.657 22.6374 12.6791 22.2877 12.7145L22.4892 14.7044C22.7875 14.6742 23.0895 14.6553 23.3947 14.6481L23.3479 12.6487ZM20.1985 13.0934C19.5067 13.2761 18.837 13.512 18.1941 13.7965L19.0031 15.6255C19.5505 15.3834 20.1204 15.1826 20.7092 15.0271L20.1985 13.0934ZM16.3256 14.806C15.729 15.1918 15.1652 15.6231 14.6388 16.0949L15.9736 17.5843C16.4225 17.1819 16.9033 16.8142 17.4117 16.4854L16.3256 14.806ZM13.1735 17.6303C12.7269 18.1781 12.3224 18.7615 11.9649 19.3755L13.6932 20.3819C13.9979 19.8587 14.3428 19.3613 14.7237 18.894L13.1735 17.6303ZM11.0438 21.2891C10.7897 21.9446 10.5853 22.6246 10.4351 23.3242L12.3906 23.744C12.5184 23.1485 12.6924 22.5698 12.9086 22.0118L11.0438 21.2891ZM10.1543 25.4288C10.1353 25.7798 10.1297 26.134 10.1381 26.4909L12.1375 26.4442C12.1304 26.139 12.1352 25.8365 12.1514 25.537L10.1543 25.4288ZM10.1381 26.4909C10.1464 26.8479 10.1685 27.2015 10.2039 27.5512L12.1938 27.3497C12.1636 27.0514 12.1447 26.7494 12.1375 26.4442L10.1381 26.4909ZM10.5828 29.6404C10.7655 30.3322 11.0015 31.0018 11.2859 31.6448L13.1149 30.8357C12.8728 30.2884 12.672 29.7185 12.5165 29.1297L10.5828 29.6404ZM12.2954 33.5133C12.6812 34.1099 13.1125 34.6737 13.5843 35.2001L15.0737 33.8653C14.6713 33.4163 14.3036 32.9356 13.9748 32.4271L12.2954 33.5133ZM15.1197 36.6653C15.6675 37.112 16.2509 37.5165 16.8649 37.874L17.8713 36.1457C17.3481 35.841 16.8507 35.4961 16.3834 35.1152L15.1197 36.6653ZM18.7785 38.7951C19.434 39.0492 20.114 39.2536 20.8136 39.4037L21.2334 37.4483C20.6379 37.3205 20.0592 37.1465 19.5012 36.9302L18.7785 38.7951ZM22.9182 39.6846C23.2692 39.7036 23.6234 39.7092 23.9803 39.7008L23.9336 37.7014C23.6284 37.7085 23.3259 37.7037 23.0264 37.6875L22.9182 39.6846ZM23.9803 39.7008C24.3373 39.6925 24.6909 39.6703 25.0406 39.6349L24.8391 37.6451C24.5408 37.6753 24.2388 37.6942 23.9336 37.7014L23.9803 39.7008ZM27.1298 39.2561C27.8216 39.0734 28.4912 38.8374 29.1342 38.553L28.3252 36.724C27.7778 36.9661 27.2079 37.1669 26.6191 37.3224L27.1298 39.2561ZM31.0027 37.5435C31.5993 37.1577 32.1631 36.7263 32.6895 36.2546L31.3547 34.7652C30.9057 35.1676 30.425 35.5353 29.9166 35.8641L31.0027 37.5435ZM34.1548 34.7192C34.6014 34.1714 35.0059 33.588 35.3634 32.974L33.6351 31.9675C33.3304 32.4908 32.9855 32.9882 32.6046 33.4555L34.1548 34.7192ZM36.2845 31.0604C36.5386 30.4049 36.743 29.7249 36.8931 29.0253L34.9377 28.6055C34.8099 29.2009 34.6359 29.7797 34.4197 30.3377L36.2845 31.0604ZM37.174 26.9207C37.193 26.5697 37.1986 26.2155 37.1902 25.8585L35.1908 25.9053C35.1979 26.2105 35.1931 26.513 35.1769 26.8124L37.174 26.9207Z" fill="#69FF93" mask="url(#path-13-outside-3_2_2037)"/>
<mask id="path-15-outside-4_2_2037" maskUnits="userSpaceOnUse" x="12.6642" y="15.1757" width="22" height="22" fill="black">
<rect fill="white" x="12.6642" y="15.1757" width="22" height="22"/>
<path d="M33.6642 26.1757C33.6642 31.6986 29.187 36.1757 23.6642 36.1757C18.1413 36.1757 13.6642 31.6986 13.6642 26.1757C13.6642 20.6529 18.1413 16.1757 23.6642 16.1757C29.187 16.1757 33.6642 20.6529 33.6642 26.1757Z"/>
</mask>
<path d="M33.6642 26.1757C33.6642 31.6986 29.187 36.1757 23.6642 36.1757C18.1413 36.1757 13.6642 31.6986 13.6642 26.1757C13.6642 20.6529 18.1413 16.1757 23.6642 16.1757C29.187 16.1757 33.6642 20.6529 33.6642 26.1757Z" fill="#050F11"/>
<path d="M32.6642 26.1757C32.6642 31.1463 28.6347 35.1757 23.6642 35.1757V37.1757C29.7393 37.1757 34.6642 32.2509 34.6642 26.1757H32.6642ZM23.6642 35.1757C18.6936 35.1757 14.6642 31.1463 14.6642 26.1757H12.6642C12.6642 32.2509 17.589 37.1757 23.6642 37.1757V35.1757ZM14.6642 26.1757C14.6642 21.2052 18.6936 17.1757 23.6642 17.1757V15.1757C17.589 15.1757 12.6642 20.1006 12.6642 26.1757H14.6642ZM23.6642 17.1757C28.6347 17.1757 32.6642 21.2052 32.6642 26.1757H34.6642C34.6642 20.1006 29.7393 15.1757 23.6642 15.1757V17.1757Z" fill="#69FF93" mask="url(#path-15-outside-4_2_2037)"/>
<path d="M26.638 22.3641C24.926 23.7752 22.4554 23.7757 20.7448 22.3658L17.8568 19.9849L20.2377 22.8729C21.6479 24.5837 21.6473 27.0544 20.236 28.7661L17.8568 31.6521L20.7428 29.2729C22.4548 27.8618 24.9254 27.8612 26.6359 29.2712L29.524 31.6521L27.1431 28.764C25.7329 27.0532 25.7334 24.5826 27.1448 22.8709L29.524 19.9849L26.638 22.3641Z" fill="white"/>
</svg>
