<svg width="83" height="44" viewBox="0 0 83 44" fill="none" xmlns="http://www.w3.org/2000/svg">
<path d="M41 6.13276L38.6132 1.13276L44.3867 1.13276L42 6.13276L41 6.13276ZM42 38.1328L44.3868 43.1328L38.6132 43.1328L41 38.1328L42 38.1328ZM42 5.63276L42 38.6328L41 38.6328L41 5.63276L42 5.63276Z" fill="#455D4C"/>
<path d="M45.2087 1L57.456 22.2129L45.2087 43.4257" stroke="#455E4C" stroke-dasharray="2 2"/>
<path d="M57.4559 1L69.7032 22.2129L57.4559 43.4257" stroke="#455E4C" stroke-dasharray="2 2"/>
<path d="M69.7032 1L81.9505 22.2129L69.7032 43.4257" stroke="#455E4C" stroke-dasharray="2 2"/>
<path d="M37.791 1L25.5438 22.2129L37.791 43.4257" stroke="#455E4C" stroke-dasharray="2 2"/>
<path d="M25.5437 1L13.2964 22.2129L25.5437 43.4257" stroke="#455E4C" stroke-dasharray="2 2"/>
<path d="M13.2964 1L1.04913 22.2129L13.2964 43.4257" stroke="#455E4C" stroke-dasharray="2 2"/>
</svg>
