<svg width="19" height="19" viewBox="0 0 19 19" fill="none" xmlns="http://www.w3.org/2000/svg">
<g clip-path="url(#clip0_224_2803)">
<path d="M13.9742 5.47199C14.2662 5.17997 14.2662 4.70651 13.9742 4.41449V4.41449C13.6822 4.12247 13.2087 4.12247 12.9167 4.41449L9.96004 7.37114C9.56951 7.76166 8.93635 7.76166 8.54582 7.37114L5.58918 4.41449C5.29716 4.12247 4.8237 4.12247 4.53168 4.41449V4.41449C4.23966 4.70651 4.23966 5.17997 4.53168 5.47199L7.48832 8.42864C7.87885 8.81916 7.87885 9.45232 7.48832 9.84285L4.53168 12.7995C4.23966 13.0915 4.23966 13.565 4.53168 13.857V13.857C4.8237 14.149 5.29716 14.149 5.58918 13.857L8.54582 10.9003C8.93635 10.5098 9.56951 10.5098 9.96004 10.9003L12.9167 13.857C13.2087 14.149 13.6822 14.149 13.9742 13.857V13.857C14.2662 13.565 14.2662 13.0915 13.9742 12.7995L11.0175 9.84285C10.627 9.45232 10.627 8.81916 11.0175 8.42864L13.9742 5.47199Z" fill="#A7A7A7"/>
<circle cx="9.25293" cy="9.13574" r="8.5" stroke="#A7A7A7"/>
</g>
<defs>
<clipPath id="clip0_224_2803">
<rect width="18" height="18" fill="white" transform="translate(0.25293 0.135742)"/>
</clipPath>
</defs>
</svg>
