<svg width="19" height="19" viewBox="0 0 19 19" fill="none" xmlns="http://www.w3.org/2000/svg">
<mask id="path-1-inside-1_2_731" fill="white">
<path fill-rule="evenodd" clip-rule="evenodd" d="M9.28491 18.3968C14.2555 18.3968 18.2849 14.3674 18.2849 9.39679C18.2849 4.42623 14.2555 0.39679 9.28491 0.39679C4.31435 0.39679 0.284912 4.42623 0.284912 9.39679C0.284912 14.3674 4.31435 18.3968 9.28491 18.3968ZM3.72224 8.3117C3.72224 9.27876 4.46388 10.0842 5.42766 10.1638L5.71282 10.1874C6.02844 10.2135 6.34428 10.2361 6.66028 10.2552C6.64272 11.0888 6.5996 11.922 6.53089 12.7536L6.48952 13.2543C6.41366 14.1726 7.13846 14.9598 8.05986 14.9598L8.22432 12.9692C8.29704 12.089 8.34283 11.2072 8.3617 10.3249C8.97718 10.338 9.59287 10.338 10.2083 10.3249C10.2272 11.2072 10.273 12.089 10.3457 12.9692L10.5102 14.9598C11.4316 14.9598 12.1564 14.1726 12.0805 13.2543L12.0392 12.7536C11.9705 11.922 11.9273 11.0888 11.9098 10.2552C12.2257 10.2361 12.5415 10.2135 12.8571 10.1874L13.1423 10.1638C14.1061 10.0842 14.8477 9.27876 14.8477 8.3117C13.8698 8.39249 12.8906 8.45194 11.9108 8.49005C11.929 7.67272 11.9718 6.85581 12.0392 6.04042L12.2214 3.83429C11.2544 3.83429 10.4489 4.57594 10.3693 5.53972L10.3457 5.82487C10.2712 6.72688 10.225 7.63063 10.207 8.53481C9.59238 8.5432 8.97767 8.5432 8.36306 8.53481C8.34509 7.63063 8.29884 6.72688 8.22432 5.82487L8.20076 5.53972C8.12113 4.57594 7.31568 3.83429 6.34862 3.83429L6.53089 6.04042C6.59826 6.85581 6.64103 7.67273 6.65922 8.49005C5.67937 8.45194 4.70014 8.39249 3.72224 8.3117Z"/>
</mask>
<path fill-rule="evenodd" clip-rule="evenodd" d="M9.28491 18.3968C14.2555 18.3968 18.2849 14.3674 18.2849 9.39679C18.2849 4.42623 14.2555 0.39679 9.28491 0.39679C4.31435 0.39679 0.284912 4.42623 0.284912 9.39679C0.284912 14.3674 4.31435 18.3968 9.28491 18.3968ZM3.72224 8.3117C3.72224 9.27876 4.46388 10.0842 5.42766 10.1638L5.71282 10.1874C6.02844 10.2135 6.34428 10.2361 6.66028 10.2552C6.64272 11.0888 6.5996 11.922 6.53089 12.7536L6.48952 13.2543C6.41366 14.1726 7.13846 14.9598 8.05986 14.9598L8.22432 12.9692C8.29704 12.089 8.34283 11.2072 8.3617 10.3249C8.97718 10.338 9.59287 10.338 10.2083 10.3249C10.2272 11.2072 10.273 12.089 10.3457 12.9692L10.5102 14.9598C11.4316 14.9598 12.1564 14.1726 12.0805 13.2543L12.0392 12.7536C11.9705 11.922 11.9273 11.0888 11.9098 10.2552C12.2257 10.2361 12.5415 10.2135 12.8571 10.1874L13.1423 10.1638C14.1061 10.0842 14.8477 9.27876 14.8477 8.3117C13.8698 8.39249 12.8906 8.45194 11.9108 8.49005C11.929 7.67272 11.9718 6.85581 12.0392 6.04042L12.2214 3.83429C11.2544 3.83429 10.4489 4.57594 10.3693 5.53972L10.3457 5.82487C10.2712 6.72688 10.225 7.63063 10.207 8.53481C9.59238 8.5432 8.97767 8.5432 8.36306 8.53481C8.34509 7.63063 8.29884 6.72688 8.22432 5.82487L8.20076 5.53972C8.12113 4.57594 7.31568 3.83429 6.34862 3.83429L6.53089 6.04042C6.59826 6.85581 6.64103 7.67273 6.65922 8.49005C5.67937 8.45194 4.70014 8.39249 3.72224 8.3117Z" fill="white"/>
<path d="M5.42766 10.1638L5.56796 8.46573L5.56796 8.46573L5.42766 10.1638ZM3.72224 8.3117L3.86253 6.6136L2.01835 6.46123V8.3117H3.72224ZM5.71282 10.1874L5.57252 11.8855L5.57252 11.8855L5.71282 10.1874ZM6.66028 10.2552L8.36378 10.2911L8.39827 8.65356L6.76336 8.55447L6.66028 10.2552ZM6.53089 12.7536L8.22899 12.8939L8.22899 12.8939L6.53089 12.7536ZM6.48952 13.2543L4.79142 13.114L4.79142 13.114L6.48952 13.2543ZM8.05986 14.9598V16.6636H9.62877L9.75796 15.1L8.05986 14.9598ZM8.22432 12.9692L9.92242 13.1095L9.92242 13.1095L8.22432 12.9692ZM8.3617 10.3249L8.39796 8.62138L6.69465 8.58512L6.65821 10.2884L8.3617 10.3249ZM10.2083 10.3249L11.9118 10.2884L11.8754 8.58512L10.1721 8.62138L10.2083 10.3249ZM10.3457 12.9692L12.0438 12.8289L12.0438 12.8289L10.3457 12.9692ZM10.5102 14.9598L8.81209 15.1L8.94128 16.6636H10.5102V14.9598ZM12.0805 13.2543L13.7786 13.114L13.7786 13.114L12.0805 13.2543ZM12.0392 12.7536L10.3411 12.8939L10.3411 12.8939L12.0392 12.7536ZM11.9098 10.2552L11.8067 8.55446L10.1718 8.65356L10.2063 10.2911L11.9098 10.2552ZM12.8571 10.1874L12.9974 11.8855L12.9974 11.8855L12.8571 10.1874ZM13.1423 10.1638L13.002 8.46573L13.002 8.46573L13.1423 10.1638ZM14.8477 8.3117H16.5516V6.46123L14.7074 6.6136L14.8477 8.3117ZM11.9108 8.49005L10.2074 8.45214L10.1671 10.263L11.9771 10.1926L11.9108 8.49005ZM12.0392 6.04042L13.7373 6.18071L13.7373 6.18071L12.0392 6.04042ZM12.2214 3.83429L13.9195 3.97458L14.0719 2.1304H12.2214V3.83429ZM10.3693 5.53972L12.0674 5.68001L12.0674 5.68001L10.3693 5.53972ZM10.3457 5.82487L8.64763 5.68457L8.64763 5.68458L10.3457 5.82487ZM10.207 8.53481L10.2302 10.2385L11.8778 10.216L11.9105 8.56867L10.207 8.53481ZM8.36306 8.53481L6.65951 8.56867L6.69226 10.2161L8.33981 10.2385L8.36306 8.53481ZM8.22432 5.82487L6.52622 5.96517L6.52622 5.96517L8.22432 5.82487ZM8.20076 5.53972L9.89886 5.39942L9.89886 5.39942L8.20076 5.53972ZM6.34862 3.83429V2.1304H4.49816L4.65052 3.97458L6.34862 3.83429ZM6.53089 6.04042L8.22899 5.90012L8.22899 5.90012L6.53089 6.04042ZM6.65922 8.49005L6.593 10.1927L8.40298 10.2631L8.36268 8.45215L6.65922 8.49005ZM16.581 9.39679C16.581 13.4263 13.3144 16.6929 9.28491 16.6929V20.1007C15.1965 20.1007 19.9888 15.3084 19.9888 9.39679H16.581ZM9.28491 2.10067C13.3144 2.10067 16.581 5.36726 16.581 9.39679H19.9888C19.9888 3.4852 15.1965 -1.3071 9.28491 -1.3071V2.10067ZM1.9888 9.39679C1.9888 5.36726 5.25538 2.10067 9.28491 2.10067V-1.3071C3.37332 -1.3071 -1.41897 3.4852 -1.41897 9.39679H1.9888ZM9.28491 16.6929C5.25538 16.6929 1.9888 13.4263 1.9888 9.39679H-1.41897C-1.41897 15.3084 3.37332 20.1007 9.28491 20.1007V16.6929ZM5.56796 8.46573C5.4878 8.45911 5.42612 8.39212 5.42612 8.3117H2.01835C2.01835 10.1654 3.43996 11.7093 5.28737 11.8619L5.56796 8.46573ZM5.85312 8.48929L5.56796 8.46573L5.28737 11.8619L5.57252 11.8855L5.85312 8.48929ZM6.76336 8.55447C6.45978 8.53607 6.15634 8.51434 5.85311 8.48929L5.57252 11.8855C5.90054 11.9126 6.22879 11.9361 6.55719 11.956L6.76336 8.55447ZM4.95677 10.2194C4.93995 11.0181 4.89862 11.8165 4.83279 12.6133L8.22899 12.8939C8.30057 12.0276 8.3455 11.1595 8.36378 10.2911L4.95677 10.2194ZM4.83279 12.6133L4.79142 13.114L8.18762 13.3946L8.22899 12.8939L4.83279 12.6133ZM4.79142 13.114C4.63352 15.0253 6.1421 16.6636 8.05986 16.6636V13.2559C8.13482 13.2559 8.19379 13.3199 8.18762 13.3946L4.79142 13.114ZM9.75796 15.1L9.92242 13.1095L6.52622 12.8289L6.36176 14.8195L9.75796 15.1ZM9.92242 13.1095C9.99799 12.1947 10.0456 11.2782 10.0652 10.3613L6.65821 10.2884C6.64008 11.1361 6.59608 11.9833 6.52622 12.8289L9.92242 13.1095ZM10.1721 8.62138C9.58078 8.63396 8.98927 8.63396 8.39796 8.62138L8.32544 12.0284C8.96509 12.042 9.60496 12.042 10.2446 12.0284L10.1721 8.62138ZM12.0438 12.8289C11.974 11.9833 11.93 11.1361 11.9118 10.2884L8.50485 10.3613C8.52446 11.2782 8.57206 12.1947 8.64763 13.1095L12.0438 12.8289ZM12.2083 14.8195L12.0438 12.8289L8.64763 13.1095L8.81209 15.1L12.2083 14.8195ZM10.3824 13.3946C10.3763 13.3199 10.4352 13.2559 10.5102 13.2559V16.6636C12.428 16.6636 13.9365 15.0253 13.7786 13.114L10.3824 13.3946ZM10.3411 12.8939L10.3824 13.3946L13.7786 13.114L13.7373 12.6133L10.3411 12.8939ZM10.2063 10.2911C10.2246 11.1595 10.2695 12.0276 10.3411 12.8939L13.7373 12.6133C13.6714 11.8165 13.6301 11.0181 13.6133 10.2194L10.2063 10.2911ZM12.7168 8.48929C12.4136 8.51434 12.1102 8.53607 11.8067 8.55446L12.0129 11.956C12.3412 11.9361 12.6694 11.9126 12.9974 11.8855L12.7168 8.48929ZM13.002 8.46573L12.7168 8.48929L12.9974 11.8855L13.2826 11.8619L13.002 8.46573ZM13.1438 8.3117C13.1438 8.39212 13.0821 8.45911 13.002 8.46573L13.2826 11.8619C15.13 11.7093 16.5516 10.1654 16.5516 8.3117H13.1438ZM11.9771 10.1926C12.9816 10.1536 13.9855 10.0926 14.988 10.0098L14.7074 6.6136C13.7542 6.69235 12.7997 6.7503 11.8446 6.78745L11.9771 10.1926ZM10.3411 5.90012C10.2709 6.7496 10.2263 7.60066 10.2074 8.45214L13.6143 8.52796C13.6317 7.74479 13.6727 6.96202 13.7373 6.18071L10.3411 5.90012ZM10.5233 3.69399L10.3411 5.90012L13.7373 6.18071L13.9195 3.97458L10.5233 3.69399ZM12.0674 5.68001C12.074 5.59985 12.141 5.53817 12.2214 5.53817V2.1304C10.3677 2.1304 8.82382 3.55202 8.67119 5.39942L12.0674 5.68001ZM12.0438 5.96517L12.0674 5.68001L8.67119 5.39942L8.64763 5.68457L12.0438 5.96517ZM11.9105 8.56867C11.9278 7.7 11.9722 6.83174 12.0438 5.96517L8.64763 5.68458C8.57018 6.62201 8.52212 7.56126 8.50344 8.50094L11.9105 8.56867ZM8.33981 10.2385C8.96993 10.2471 9.60013 10.2471 10.2302 10.2385L10.1837 6.83108C9.58462 6.83926 8.98542 6.83926 8.38631 6.83108L8.33981 10.2385ZM10.0666 8.50095C10.0479 7.56126 9.99986 6.62201 9.92242 5.68458L6.52622 5.96517C6.59781 6.83175 6.64224 7.70001 6.65951 8.56867L10.0666 8.50095ZM9.92242 5.68458L9.89886 5.39942L6.50266 5.68001L6.52622 5.96517L9.92242 5.68458ZM9.89886 5.39942C9.74623 3.55202 8.20232 2.1304 6.34862 2.1304V5.53817C6.42905 5.53817 6.49604 5.59985 6.50266 5.68001L9.89886 5.39942ZM4.65052 3.97458L4.83279 6.18071L8.22899 5.90012L8.04672 3.69399L4.65052 3.97458ZM4.83279 6.18071C4.89734 6.96202 4.93833 7.74479 4.95576 8.52796L8.36268 8.45215C8.34374 7.60066 8.29917 6.7496 8.22899 5.90012L4.83279 6.18071ZM3.58194 10.0098C4.58451 10.0926 5.58844 10.1536 6.593 10.1927L6.72544 6.78746C5.77031 6.75031 4.81578 6.69235 3.86253 6.6136L3.58194 10.0098Z" fill="white" mask="url(#path-1-inside-1_2_731)"/>
</svg>
