<svg width="19" height="19" viewBox="0 0 19 19" fill="none" xmlns="http://www.w3.org/2000/svg">
<mask id="path-1-inside-1_1001_23605" fill="white">
<path fill-rule="evenodd" clip-rule="evenodd" d="M9.39697 18.4277C14.3675 18.4277 18.397 14.3983 18.397 9.42773C18.397 4.45717 14.3675 0.427734 9.39697 0.427734C4.42641 0.427734 0.396973 4.45717 0.396973 9.42773C0.396973 14.3983 4.42641 18.4277 9.39697 18.4277ZM3.8342 8.34304C3.8342 9.3101 4.57585 10.1156 5.53963 10.1952L5.82478 10.2187C6.14044 10.2448 6.45632 10.2674 6.77235 10.2866C6.7548 11.1202 6.71167 11.9535 6.64296 12.7851L6.60159 13.2858C6.52572 14.2041 7.25053 14.9913 8.17192 14.9913L8.33638 13.0007C8.40911 12.1205 8.4549 11.2386 8.47378 10.3562C9.08916 10.3693 9.70475 10.3693 10.3201 10.3562C10.339 11.2386 10.3848 12.1205 10.4575 13.0007L10.622 14.9913C11.5434 14.9913 12.2682 14.2041 12.1923 13.2858L12.1509 12.7851C12.0822 11.9535 12.0391 11.1202 12.0216 10.2866C12.3376 10.2674 12.6534 10.2448 12.9691 10.2187L13.2542 10.1952C14.218 10.1156 14.9597 9.3101 14.9597 8.34304C13.9817 8.42384 13.0025 8.48329 12.0226 8.5214C12.0408 7.70413 12.0836 6.88727 12.1509 6.07193L12.3332 3.86581C11.3662 3.86581 10.5607 4.60745 10.4811 5.57123L10.4575 5.85639C10.383 6.75834 10.3368 7.66204 10.3188 8.56615C9.70426 8.57454 9.08965 8.57454 8.47512 8.56615C8.45715 7.66204 8.4109 6.75834 8.33638 5.85639L8.31282 5.57123C8.2332 4.60745 7.42775 3.86581 6.46069 3.86581L6.64296 6.07193C6.71032 6.88727 6.75309 7.70413 6.77129 8.5214C5.7914 8.48329 4.81214 8.42384 3.8342 8.34304Z"/>
</mask>
<path fill-rule="evenodd" clip-rule="evenodd" d="M9.39697 18.4277C14.3675 18.4277 18.397 14.3983 18.397 9.42773C18.397 4.45717 14.3675 0.427734 9.39697 0.427734C4.42641 0.427734 0.396973 4.45717 0.396973 9.42773C0.396973 14.3983 4.42641 18.4277 9.39697 18.4277ZM3.8342 8.34304C3.8342 9.3101 4.57585 10.1156 5.53963 10.1952L5.82478 10.2187C6.14044 10.2448 6.45632 10.2674 6.77235 10.2866C6.7548 11.1202 6.71167 11.9535 6.64296 12.7851L6.60159 13.2858C6.52572 14.2041 7.25053 14.9913 8.17192 14.9913L8.33638 13.0007C8.40911 12.1205 8.4549 11.2386 8.47378 10.3562C9.08916 10.3693 9.70475 10.3693 10.3201 10.3562C10.339 11.2386 10.3848 12.1205 10.4575 13.0007L10.622 14.9913C11.5434 14.9913 12.2682 14.2041 12.1923 13.2858L12.1509 12.7851C12.0822 11.9535 12.0391 11.1202 12.0216 10.2866C12.3376 10.2674 12.6534 10.2448 12.9691 10.2187L13.2542 10.1952C14.218 10.1156 14.9597 9.3101 14.9597 8.34304C13.9817 8.42384 13.0025 8.48329 12.0226 8.5214C12.0408 7.70413 12.0836 6.88727 12.1509 6.07193L12.3332 3.86581C11.3662 3.86581 10.5607 4.60745 10.4811 5.57123L10.4575 5.85639C10.383 6.75834 10.3368 7.66204 10.3188 8.56615C9.70426 8.57454 9.08965 8.57454 8.47512 8.56615C8.45715 7.66204 8.4109 6.75834 8.33638 5.85639L8.31282 5.57123C8.2332 4.60745 7.42775 3.86581 6.46069 3.86581L6.64296 6.07193C6.71032 6.88727 6.75309 7.70413 6.77129 8.5214C5.7914 8.48329 4.81214 8.42384 3.8342 8.34304Z" fill="#69FF93"/>
<path d="M5.53963 10.1952L5.67992 8.49708H5.67992L5.53963 10.1952ZM3.8342 8.34304L3.9745 6.64494L2.13032 6.49258V8.34304H3.8342ZM5.82478 10.2187L5.68449 11.9168H5.68449L5.82478 10.2187ZM6.77235 10.2866L8.47586 10.3224L8.51033 8.68491L6.87543 8.58582L6.77235 10.2866ZM6.64296 12.7851L8.34106 12.9254L6.64296 12.7851ZM6.60159 13.2858L4.90349 13.1456L6.60159 13.2858ZM8.17192 14.9913V16.6952H9.74084L9.87002 15.1316L8.17192 14.9913ZM8.33638 13.0007L10.0345 13.141L8.33638 13.0007ZM8.47378 10.3562L8.51003 8.65273L6.80671 8.61647L6.77028 10.3198L8.47378 10.3562ZM10.3201 10.3562L12.0236 10.3198L11.9872 8.61647L10.2839 8.65273L10.3201 10.3562ZM10.4575 13.0007L12.1556 12.8604V12.8604L10.4575 13.0007ZM10.622 14.9913L8.92388 15.1316L9.05307 16.6952H10.622V14.9913ZM12.1923 13.2858L10.4942 13.4261V13.4261L12.1923 13.2858ZM12.1509 12.7851L10.4529 12.9254L12.1509 12.7851ZM12.0216 10.2866L11.9185 8.58582L10.2836 8.68491L10.3181 10.3224L12.0216 10.2866ZM12.9691 10.2187L13.1094 11.9168H13.1094L12.9691 10.2187ZM13.2542 10.1952L13.1139 8.49708H13.1139L13.2542 10.1952ZM14.9597 8.34304H16.6636V6.49258L14.8194 6.64494L14.9597 8.34304ZM12.0226 8.5214L10.3192 8.48349L10.2789 10.2944L12.0888 10.224L12.0226 8.5214ZM12.1509 6.07193L10.4529 5.93164V5.93164L12.1509 6.07193ZM12.3332 3.86581L14.0313 4.0061L14.1837 2.16192H12.3332V3.86581ZM10.4811 5.57123L8.78298 5.43094L8.78298 5.43094L10.4811 5.57123ZM10.4575 5.85639L12.1556 5.99669L12.1556 5.99668L10.4575 5.85639ZM10.3188 8.56615L10.342 10.2699L11.9896 10.2474L12.0223 8.60002L10.3188 8.56615ZM8.47512 8.56615L6.77158 8.60002L6.80433 10.2474L8.45188 10.2699L8.47512 8.56615ZM8.33638 5.85639L10.0345 5.71609V5.71609L8.33638 5.85639ZM8.31282 5.57123L6.61473 5.71153V5.71153L8.31282 5.57123ZM6.46069 3.86581V2.16192H4.61023L4.76259 4.0061L6.46069 3.86581ZM6.64296 6.07193L4.94486 6.21223V6.21223L6.64296 6.07193ZM6.77129 8.5214L6.70506 10.224L8.51506 10.2944L8.47475 8.48349L6.77129 8.5214ZM16.6931 9.42773C16.6931 13.4573 13.4265 16.7239 9.39697 16.7239V20.1316C15.3086 20.1316 20.1009 15.3393 20.1009 9.42773H16.6931ZM9.39697 2.13162C13.4265 2.13162 16.6931 5.3982 16.6931 9.42773H20.1009C20.1009 3.51614 15.3086 -1.27615 9.39697 -1.27615V2.13162ZM2.10086 9.42773C2.10086 5.3982 5.36744 2.13162 9.39697 2.13162V-1.27615C3.48538 -1.27615 -1.30691 3.51614 -1.30691 9.42773H2.10086ZM9.39697 16.7239C5.36744 16.7239 2.10086 13.4573 2.10086 9.42773H-1.30691C-1.30691 15.3393 3.48538 20.1316 9.39697 20.1316V16.7239ZM5.67992 8.49708C5.59977 8.49045 5.53809 8.42347 5.53809 8.34304H2.13032C2.13032 10.1967 3.55193 11.7406 5.39933 11.8933L5.67992 8.49708ZM5.96508 8.52064L5.67992 8.49708L5.39933 11.8933L5.68449 11.9168L5.96508 8.52064ZM6.87543 8.58582C6.57181 8.56742 6.26834 8.54569 5.96508 8.52064L5.68449 11.9168C6.01254 11.9439 6.34082 11.9674 6.66927 11.9874L6.87543 8.58582ZM5.06884 10.2507C5.05202 11.0495 5.0107 11.8479 4.94486 12.6448L8.34106 12.9254C8.41264 12.059 8.45757 11.1909 8.47586 10.3224L5.06884 10.2507ZM4.94486 12.6448L4.90349 13.1456L8.29969 13.4261L8.34106 12.9254L4.94486 12.6448ZM4.90349 13.1456C4.74559 15.0568 6.25417 16.6952 8.17192 16.6952V13.2874C8.24689 13.2874 8.30586 13.3514 8.29969 13.4261L4.90349 13.1456ZM9.87002 15.1316L10.0345 13.141L6.63829 12.8604L6.47383 14.851L9.87002 15.1316ZM10.0345 13.141C10.1101 12.2262 10.1577 11.3096 10.1773 10.3927L6.77028 10.3198C6.75215 11.1675 6.70815 12.0147 6.63829 12.8604L10.0345 13.141ZM10.2839 8.65273C9.69266 8.66531 9.10124 8.66531 8.51003 8.65273L8.43752 12.0597C9.07707 12.0733 9.71684 12.0733 10.3564 12.0597L10.2839 8.65273ZM12.1556 12.8604C12.0858 12.0147 12.0418 11.1675 12.0236 10.3198L8.61664 10.3927C8.63625 11.3096 8.68384 12.2262 8.75942 13.141L12.1556 12.8604ZM12.3201 14.851L12.1556 12.8604L8.75942 13.141L8.92388 15.1316L12.3201 14.851ZM10.4942 13.4261C10.488 13.3514 10.547 13.2874 10.622 13.2874V16.6952C12.5397 16.6952 14.0483 15.0568 13.8904 13.1456L10.4942 13.4261ZM10.4529 12.9254L10.4942 13.4261L13.8904 13.1456L13.849 12.6448L10.4529 12.9254ZM10.3181 10.3224C10.3363 11.1909 10.3813 12.059 10.4529 12.9254L13.849 12.6448C13.7832 11.8479 13.7419 11.0495 13.7251 10.2507L10.3181 10.3224ZM12.8288 8.52064C12.5255 8.54569 12.2221 8.56742 11.9185 8.58582L12.1246 11.9873C12.4531 11.9674 12.7813 11.9439 13.1094 11.9168L12.8288 8.52064ZM13.1139 8.49708L12.8288 8.52064L13.1094 11.9168L13.3945 11.8933L13.1139 8.49708ZM13.2558 8.34304C13.2558 8.42347 13.1941 8.49045 13.1139 8.49708L13.3945 11.8933C15.2419 11.7406 16.6636 10.1967 16.6636 8.34304H13.2558ZM12.0888 10.224C13.0934 10.1849 14.0974 10.124 15.1 10.0411L14.8194 6.64494C13.8661 6.7237 12.9116 6.78165 11.9564 6.8188L12.0888 10.224ZM10.4529 5.93164C10.3827 6.78106 10.3381 7.63206 10.3192 8.48349L13.7261 8.55932C13.7435 7.7762 13.7845 6.99349 13.849 6.21223L10.4529 5.93164ZM10.6351 3.72551L10.4529 5.93164L13.849 6.21223L14.0313 4.0061L10.6351 3.72551ZM12.1792 5.71153C12.1858 5.63137 12.2528 5.56969 12.3332 5.56969V2.16192C10.4795 2.16192 8.93561 3.58354 8.78298 5.43094L12.1792 5.71153ZM12.1556 5.99668L12.1792 5.71152L8.78298 5.43094L8.75942 5.7161L12.1556 5.99668ZM12.0223 8.60002C12.0396 7.73141 12.084 6.86321 12.1556 5.99669L8.75942 5.71609C8.68198 6.65347 8.63392 7.59266 8.61524 8.53228L12.0223 8.60002ZM8.45188 10.2699C9.0819 10.2785 9.71201 10.2785 10.342 10.2699L10.2955 6.86243C9.69651 6.8706 9.0974 6.8706 8.49837 6.86243L8.45188 10.2699ZM10.1787 8.53228C10.16 7.59266 10.1119 6.65347 10.0345 5.71609L6.63829 5.99668C6.70988 6.86321 6.75431 7.73141 6.77158 8.60002L10.1787 8.53228ZM10.0345 5.71609L10.0109 5.43094L6.61473 5.71153L6.63829 5.99669L10.0345 5.71609ZM10.0109 5.43094C9.85829 3.58354 8.31439 2.16192 6.46069 2.16192V5.56969C6.54112 5.56969 6.6081 5.63137 6.61473 5.71153L10.0109 5.43094ZM4.76259 4.0061L4.94486 6.21223L8.34106 5.93164L8.15879 3.72551L4.76259 4.0061ZM4.94486 6.21223C5.00941 6.99349 5.05039 7.7762 5.06782 8.55932L8.47475 8.48349C8.4558 7.63206 8.41123 6.78106 8.34106 5.93164L4.94486 6.21223ZM3.69391 10.0411C4.69651 10.124 5.70047 10.1849 6.70506 10.224L6.83751 6.8188C5.88234 6.78165 4.92777 6.7237 3.9745 6.64494L3.69391 10.0411Z" fill="#69FF93" mask="url(#path-1-inside-1_1001_23605)"/>
</svg>
