<svg width="15" height="14" viewBox="0 0 15 14" fill="none" xmlns="http://www.w3.org/2000/svg">
<mask id="path-1-inside-1_2_73" fill="white">
<path fill-rule="evenodd" clip-rule="evenodd" d="M7.22754 14.002C11.0935 14.002 14.2275 10.868 14.2275 7.002C14.2275 3.13601 11.0935 0.0019989 7.22754 0.0019989C3.36155 0.0019989 0.227539 3.13601 0.227539 7.002C0.227539 10.868 3.36155 14.002 7.22754 14.002ZM2.90096 6.15711C2.90096 6.90927 3.4778 7.53573 4.2274 7.59766L4.44919 7.61599C4.69469 7.63627 4.94035 7.65386 5.18614 7.66876C5.17249 8.31727 5.13895 8.96547 5.08549 9.61244L5.05332 10.0019C4.99431 10.7161 5.55805 11.3283 6.27469 11.3283L6.4026 9.78009C6.45918 9.09534 6.4948 8.4093 6.50947 7.72292C6.98819 7.73311 7.46708 7.73311 7.9458 7.72292C7.96047 8.4093 7.99609 9.09534 8.05266 9.78009L8.18058 11.3283C8.89722 11.3283 9.46096 10.7161 9.40195 10.0019L9.36977 9.61244C9.31632 8.96547 9.28277 8.31726 9.26913 7.66875C9.51485 7.65385 9.76044 7.63627 10.0059 7.61599L10.2277 7.59766C10.9773 7.53573 11.5541 6.90927 11.5541 6.15711C10.7936 6.21995 10.032 6.26619 9.26997 6.29583C9.28412 5.6603 9.31739 5.02508 9.36977 4.39105L9.51154 2.67518C8.75938 2.67518 8.13292 3.25201 8.07099 4.00162L8.05266 4.22341C7.99472 4.9248 7.95875 5.62756 7.94476 6.33064C7.4667 6.33717 6.98857 6.33717 6.51051 6.33065C6.49652 5.62756 6.46055 4.9248 6.4026 4.22341L6.38428 4.00162C6.32235 3.25201 5.69589 2.67518 4.94373 2.67518L5.08549 4.39105C5.13788 5.02509 5.17114 5.6603 5.1853 6.29584C4.42319 6.2662 3.66156 6.21995 2.90096 6.15711Z"/>
</mask>
<path fill-rule="evenodd" clip-rule="evenodd" d="M7.22754 14.002C11.0935 14.002 14.2275 10.868 14.2275 7.002C14.2275 3.13601 11.0935 0.0019989 7.22754 0.0019989C3.36155 0.0019989 0.227539 3.13601 0.227539 7.002C0.227539 10.868 3.36155 14.002 7.22754 14.002ZM2.90096 6.15711C2.90096 6.90927 3.4778 7.53573 4.2274 7.59766L4.44919 7.61599C4.69469 7.63627 4.94035 7.65386 5.18614 7.66876C5.17249 8.31727 5.13895 8.96547 5.08549 9.61244L5.05332 10.0019C4.99431 10.7161 5.55805 11.3283 6.27469 11.3283L6.4026 9.78009C6.45918 9.09534 6.4948 8.4093 6.50947 7.72292C6.98819 7.73311 7.46708 7.73311 7.9458 7.72292C7.96047 8.4093 7.99609 9.09534 8.05266 9.78009L8.18058 11.3283C8.89722 11.3283 9.46096 10.7161 9.40195 10.0019L9.36977 9.61244C9.31632 8.96547 9.28277 8.31726 9.26913 7.66875C9.51485 7.65385 9.76044 7.63627 10.0059 7.61599L10.2277 7.59766C10.9773 7.53573 11.5541 6.90927 11.5541 6.15711C10.7936 6.21995 10.032 6.26619 9.26997 6.29583C9.28412 5.6603 9.31739 5.02508 9.36977 4.39105L9.51154 2.67518C8.75938 2.67518 8.13292 3.25201 8.07099 4.00162L8.05266 4.22341C7.99472 4.9248 7.95875 5.62756 7.94476 6.33064C7.4667 6.33717 6.98857 6.33717 6.51051 6.33065C6.49652 5.62756 6.46055 4.9248 6.4026 4.22341L6.38428 4.00162C6.32235 3.25201 5.69589 2.67518 4.94373 2.67518L5.08549 4.39105C5.13788 5.02509 5.17114 5.6603 5.1853 6.29584C4.42319 6.2662 3.66156 6.21995 2.90096 6.15711Z" fill="black"/>
<path d="M4.2274 7.59766L4.08711 9.29576L4.2274 7.59766ZM2.90096 6.15711L3.04126 4.45902L1.19708 4.30665V6.15711H2.90096ZM4.44919 7.61599L4.58949 5.91789L4.44919 7.61599ZM5.18614 7.66876L6.88965 7.7046L6.9241 6.06708L5.28922 5.96799L5.18614 7.66876ZM5.08549 9.61244L3.3874 9.47214L3.3874 9.47214L5.08549 9.61244ZM5.05332 10.0019L6.75142 10.1422V10.1422L5.05332 10.0019ZM6.27469 11.3283V13.0322H7.84361L7.97279 11.4686L6.27469 11.3283ZM6.4026 9.78009L4.7045 9.63979L6.4026 9.78009ZM6.50947 7.72292L6.54573 6.01942L4.84239 5.98317L4.80598 7.68651L6.50947 7.72292ZM7.9458 7.72292L9.64929 7.6865L9.61288 5.98315L7.90953 6.01942L7.9458 7.72292ZM8.05266 9.78009L6.35456 9.92038L8.05266 9.78009ZM8.18058 11.3283L6.48248 11.4686L6.61166 13.0322H8.18058V11.3283ZM9.40195 10.0019L7.70385 10.1422L7.70385 10.1422L9.40195 10.0019ZM9.36977 9.61244L11.0679 9.47215V9.47214L9.36977 9.61244ZM9.26913 7.66875L9.16603 5.96798L7.53117 6.06708L7.56562 7.70459L9.26913 7.66875ZM10.0059 7.61599L10.1462 9.31409L10.0059 7.61599ZM10.2277 7.59766L10.368 9.29576L10.2277 7.59766ZM11.5541 6.15711H13.258V4.30665L11.4138 4.45902L11.5541 6.15711ZM9.26997 6.29583L7.56651 6.2579L7.52618 8.06884L9.3362 7.99843L9.26997 6.29583ZM9.36977 4.39105L11.0679 4.53135V4.53135L9.36977 4.39105ZM9.51154 2.67518L11.2096 2.81547L11.362 0.971291H9.51154V2.67518ZM8.07099 4.00162L6.37289 3.86132L8.07099 4.00162ZM8.05266 4.22341L9.75076 4.3637L8.05266 4.22341ZM7.94476 6.33064L7.96802 8.03437L9.61554 8.01188L9.64831 6.36453L7.94476 6.33064ZM6.51051 6.33065L4.80696 6.36453L4.83973 8.01189L6.48726 8.03437L6.51051 6.33065ZM6.4026 4.22341L4.7045 4.3637V4.3637L6.4026 4.22341ZM6.38428 4.00162L8.08238 3.86132L6.38428 4.00162ZM4.94373 2.67518V0.971291H3.09327L3.24563 2.81547L4.94373 2.67518ZM5.08549 4.39105L3.3874 4.53135H3.3874L5.08549 4.39105ZM5.1853 6.29584L5.11907 7.99844L6.92909 8.06884L6.88876 6.2579L5.1853 6.29584ZM12.5237 7.002C12.5237 9.92696 10.1525 12.2981 7.22754 12.2981V15.7059C12.0346 15.7059 15.9314 11.809 15.9314 7.002H12.5237ZM7.22754 1.70588C10.1525 1.70588 12.5237 4.07704 12.5237 7.002H15.9314C15.9314 2.19498 12.0346 -1.70189 7.22754 -1.70189V1.70588ZM1.93142 7.002C1.93142 4.07704 4.30258 1.70588 7.22754 1.70588V-1.70189C2.42052 -1.70189 -1.47635 2.19498 -1.47635 7.002H1.93142ZM7.22754 12.2981C4.30258 12.2981 1.93142 9.92696 1.93142 7.002H-1.47635C-1.47635 11.809 2.42052 15.7059 7.22754 15.7059V12.2981ZM4.3677 5.89957C4.50172 5.91064 4.60485 6.02264 4.60485 6.15711H1.19708C1.19708 7.79591 2.45388 9.16083 4.08711 9.29576L4.3677 5.89957ZM4.58949 5.91789L4.3677 5.89957L4.08711 9.29576L4.3089 9.31409L4.58949 5.91789ZM5.28922 5.96799C5.05585 5.95385 4.82259 5.93715 4.58949 5.91789L4.3089 9.31409C4.56679 9.33539 4.82486 9.35387 5.08306 9.36952L5.28922 5.96799ZM3.48263 7.63291C3.46972 8.24658 3.43797 8.85994 3.3874 9.47214L6.78359 9.75273C6.83992 9.071 6.87527 8.38796 6.88965 7.7046L3.48263 7.63291ZM3.3874 9.47214L3.35522 9.86158L6.75142 10.1422L6.78359 9.75273L3.3874 9.47214ZM3.35522 9.86158C3.21417 11.5688 4.56169 13.0322 6.27469 13.0322V9.62443C6.55441 9.62443 6.77445 9.8634 6.75142 10.1422L3.35522 9.86158ZM7.97279 11.4686L8.1007 9.92038L4.7045 9.63979L4.57659 11.188L7.97279 11.4686ZM8.1007 9.92038C8.16013 9.20106 8.19755 8.48038 8.21297 7.75934L4.80598 7.68651C4.79204 8.33823 4.75822 8.98962 4.7045 9.63979L8.1007 9.92038ZM7.90953 6.01942C7.45498 6.0291 7.00028 6.0291 6.54573 6.01942L6.47321 9.42642C6.97611 9.43713 7.47917 9.43713 7.98207 9.42642L7.90953 6.01942ZM9.75076 9.63979C9.69705 8.98962 9.66322 8.33822 9.64929 7.6865L6.2423 7.75934C6.25771 8.48037 6.29513 9.20106 6.35456 9.92038L9.75076 9.63979ZM9.87868 11.188L9.75076 9.63979L6.35456 9.92038L6.48248 11.4686L9.87868 11.188ZM7.70385 10.1422C7.68082 9.8634 7.90086 9.62443 8.18058 9.62443V13.0322C9.89358 13.0322 11.2411 11.5688 11.1 9.86158L7.70385 10.1422ZM7.67167 9.75273L7.70385 10.1422L11.1 9.86158L11.0679 9.47215L7.67167 9.75273ZM7.56562 7.70459C7.58 8.38795 7.61535 9.07099 7.67167 9.75273L11.0679 9.47214C11.0173 8.85994 10.9855 8.24657 10.9726 7.6329L7.56562 7.70459ZM9.86557 5.91789C9.63254 5.93714 9.39935 5.95384 9.16603 5.96798L9.37222 9.36951C9.63035 9.35386 9.88834 9.33539 10.1462 9.31409L9.86557 5.91789ZM10.0874 5.89957L9.86557 5.91789L10.1462 9.31409L10.368 9.29576L10.0874 5.89957ZM9.85021 6.15711C9.85021 6.02264 9.95334 5.91064 10.0874 5.89957L10.368 9.29576C12.0012 9.16083 13.258 7.79591 13.258 6.15711H9.85021ZM9.3362 7.99843C10.123 7.96782 10.9092 7.92009 11.6944 7.85521L11.4138 4.45902C10.6779 4.51981 9.94107 4.56455 9.20374 4.59323L9.3362 7.99843ZM7.67167 4.25076C7.61648 4.91886 7.58142 5.58821 7.56651 6.2579L10.9734 6.33376C10.9868 5.73238 11.0183 5.1313 11.0679 4.53135L7.67167 4.25076ZM7.81344 2.53488L7.67167 4.25076L11.0679 4.53135L11.2096 2.81547L7.81344 2.53488ZM9.76909 4.14191C9.75801 4.27593 9.64601 4.37906 9.51154 4.37906V0.971291C7.87274 0.971291 6.50782 2.22809 6.37289 3.86132L9.76909 4.14191ZM9.75076 4.3637L9.76909 4.14191L6.37289 3.86132L6.35456 4.08311L9.75076 4.3637ZM9.64831 6.36453C9.66159 5.69695 9.69574 5.02968 9.75076 4.3637L6.35456 4.08311C6.29369 4.81993 6.25591 5.55817 6.24121 6.29676L9.64831 6.36453ZM6.48726 8.03437C6.98082 8.04111 7.47445 8.04111 7.96802 8.03437L7.9215 4.62692C7.45894 4.63323 6.99632 4.63323 6.53376 4.62692L6.48726 8.03437ZM8.21405 6.29676C8.19936 5.55817 8.16158 4.81993 8.1007 4.08311L4.7045 4.3637C4.75953 5.02968 4.79368 5.69695 4.80696 6.36453L8.21405 6.29676ZM8.1007 4.08311L8.08238 3.86132L4.68618 4.14191L4.7045 4.3637L8.1007 4.08311ZM8.08238 3.86132C7.94744 2.22809 6.58253 0.971291 4.94373 0.971291V4.37906C4.80926 4.37906 4.69725 4.27593 4.68618 4.14191L8.08238 3.86132ZM3.24563 2.81547L3.3874 4.53135L6.78359 4.25076L6.64183 2.53488L3.24563 2.81547ZM3.3874 4.53135C3.43696 5.13131 3.46844 5.73239 3.48183 6.33377L6.88876 6.2579C6.87385 5.58822 6.83879 4.91887 6.78359 4.25076L3.3874 4.53135ZM2.76066 7.85521C3.54593 7.92009 4.33225 7.96783 5.11907 7.99844L5.25152 4.59324C4.51412 4.56456 3.77719 4.51982 3.04126 4.45902L2.76066 7.85521Z" fill="black" mask="url(#path-1-inside-1_2_73)"/>
</svg>
