<svg width="18" height="19" viewBox="0 0 18 19" fill="none" xmlns="http://www.w3.org/2000/svg">
<path d="M9.84543 6.28293L10.9002 7.34418C11.3847 7.8317 11.7691 8.41048 12.0314 9.04747C12.2936 9.68446 12.4286 10.3672 12.4286 11.0567C12.4286 11.7462 12.2936 12.4289 12.0314 13.0659C11.7691 13.7029 11.3847 14.2817 10.9002 14.7692L10.6363 15.0339C9.65772 16.0185 8.33049 16.5717 6.94657 16.5717C5.56266 16.5717 4.23543 16.0185 3.25685 15.0339C2.27827 14.0493 1.72852 12.7139 1.72852 11.3214C1.72852 9.92897 2.27827 8.59355 3.25685 7.60893L4.31159 8.67018C3.96302 9.01785 3.68613 9.43136 3.49681 9.88698C3.3075 10.3426 3.20949 10.8314 3.20842 11.3252C3.20734 11.819 3.30322 12.3082 3.49055 12.7647C3.67788 13.2211 3.95297 13.6359 4.30002 13.9851C4.64708 14.3343 5.05926 14.6111 5.51292 14.7995C5.96657 14.988 6.45276 15.0845 6.94357 15.0834C7.43437 15.0823 7.92014 14.9837 8.37297 14.7932C8.82579 14.6028 9.23677 14.3242 9.5823 13.9734L9.84617 13.7079C10.5449 13.0047 10.9374 12.051 10.9374 11.0567C10.9374 10.0623 10.5449 9.10866 9.84617 8.40543L8.79144 7.34418L9.84617 6.28368L9.84543 6.28293ZM14.853 10.7912L13.799 9.73068C14.1476 9.38302 14.4245 8.9695 14.6138 8.51388C14.8031 8.05825 14.9011 7.56949 14.9022 7.07565C14.9033 6.58182 14.8074 6.09263 14.6201 5.63617C14.4327 5.17972 14.1576 4.76499 13.8106 4.41579C13.4635 4.0666 13.0514 3.78981 12.5977 3.60133C12.144 3.41284 11.6579 3.31637 11.167 3.31745C10.6762 3.31853 10.1905 3.41715 9.73765 3.60763C9.28482 3.79811 8.87384 4.07671 8.52831 4.42743L8.26444 4.69293C7.56573 5.39616 7.17323 6.34981 7.17323 7.34418C7.17323 8.33855 7.56573 9.2922 8.26444 9.99543L9.31918 11.0567L8.26444 12.1172L7.21044 11.0567C6.72587 10.5692 6.34148 9.99039 6.07923 9.35339C5.81698 8.7164 5.682 8.03367 5.682 7.34418C5.682 6.6547 5.81698 5.97196 6.07923 5.33497C6.34148 4.69797 6.72587 4.1192 7.21044 3.63168L7.47432 3.36693C8.45289 2.38231 9.78012 1.82916 11.164 1.82916C12.548 1.82916 13.8752 2.38231 14.8538 3.36693C15.8323 4.35155 16.3821 5.68697 16.3821 7.07943C16.3821 8.47189 15.8323 9.80732 14.8538 10.7919L14.853 10.7912Z" fill="black"/>
</svg>
