<svg width="46" height="64" viewBox="0 0 46 64" fill="none" xmlns="http://www.w3.org/2000/svg">
<mask id="path-1-outside-1_2_1727" maskUnits="userSpaceOnUse" x="0.422943" y="2.84882" width="46" height="61" fill="black">
<rect fill="white" x="0.422943" y="2.84882" width="46" height="61"/>
<path d="M23.2909 60.9397L6.37032 47.82C3.89567 45.9012 2.42294 42.7737 2.42294 39.4372L2.42295 11.1705L23.2909 5.84882L43.5592 11.1705L43.5592 39.4372C43.5592 42.78 42.1055 45.9198 39.6505 47.8797L23.2909 60.9397Z"/>
</mask>
<path d="M23.2909 60.9397L6.37032 47.82C3.89567 45.9012 2.42294 42.7737 2.42294 39.4372L2.42295 11.1705L23.2909 5.84882L43.5592 11.1705L43.5592 39.4372C43.5592 42.78 42.1055 45.9198 39.6505 47.8797L23.2909 60.9397Z" fill="#455D4C"/>
<path d="M6.37032 47.82L5.14481 49.4005L5.14481 49.4005L6.37032 47.82ZM23.2909 60.9397L22.0654 62.5202L23.3089 63.4844L24.5386 62.5027L23.2909 60.9397ZM2.42295 11.1705L1.92873 9.23256L0.422946 9.61656L0.422946 11.1705L2.42295 11.1705ZM2.42294 39.4372L4.42294 39.4372L4.42294 39.4372L2.42294 39.4372ZM23.2909 5.84882L23.7988 3.91438L23.2982 3.78294L22.7966 3.91084L23.2909 5.84882ZM43.5592 11.1705L45.5592 11.1705L45.5592 9.62787L44.0671 9.2361L43.5592 11.1705ZM43.5592 39.4372L41.5592 39.4372L41.5592 39.4372L43.5592 39.4372ZM39.6505 47.8797L40.8982 49.4427L40.8982 49.4427L39.6505 47.8797ZM5.14481 49.4005L22.0654 62.5202L24.5164 59.3592L7.59583 46.2395L5.14481 49.4005ZM0.422946 11.1705L0.422943 39.4372L4.42294 39.4372L4.42295 11.1705L0.422946 11.1705ZM22.7966 3.91084L1.92873 9.23256L2.91717 13.1085L23.7851 7.78679L22.7966 3.91084ZM44.0671 9.2361L23.7988 3.91438L22.7829 7.78325L43.0513 13.105L44.0671 9.2361ZM45.5592 39.4372L45.5592 11.1705L41.5592 11.1705L41.5592 39.4372L45.5592 39.4372ZM24.5386 62.5027L40.8982 49.4427L38.4027 46.3167L22.0431 59.3767L24.5386 62.5027ZM40.8982 49.4427C43.8627 47.0762 45.5592 43.3433 45.5592 39.4372L41.5592 39.4372C41.5592 42.2166 40.3483 44.7635 38.4027 46.3167L40.8982 49.4427ZM7.59583 46.2395C5.64564 44.7273 4.42294 42.2023 4.42294 39.4372L0.422943 39.4372C0.422937 43.3451 2.14571 47.0751 5.14481 49.4005L7.59583 46.2395Z" fill="#050F11" mask="url(#path-1-outside-1_2_1727)"/>
<mask id="path-3-inside-2_2_1727" fill="white">
<path d="M23.2908 56.0303L6.37023 42.9106C3.89558 40.9919 2.42285 37.8643 2.42285 34.5279L2.42285 6.26117L23.2908 0.939453L43.5591 6.26117V13.3278V20.3945V27.4612L43.5591 34.5279C43.5591 37.8706 42.1054 41.0105 39.6504 42.9704L23.2908 56.0303Z"/>
</mask>
<path d="M23.2908 56.0303L6.37023 42.9106C3.89558 40.9919 2.42285 37.8643 2.42285 34.5279L2.42285 6.26117L23.2908 0.939453L43.5591 6.26117V13.3278V20.3945V27.4612L43.5591 34.5279C43.5591 37.8706 42.1054 41.0105 39.6504 42.9704L23.2908 56.0303Z" fill="#050F11"/>
<path d="M6.37023 42.9106L5.75747 43.7009L5.75747 43.7009L6.37023 42.9106ZM23.2908 56.0303L22.678 56.8206L23.2998 57.3027L23.9147 56.8119L23.2908 56.0303ZM2.42285 6.26117L2.17574 5.29218L1.42285 5.48418L1.42285 6.26117L2.42285 6.26117ZM2.42285 34.5279L3.42285 34.5279L3.42285 34.5279L2.42285 34.5279ZM23.2908 0.939453L23.5447 -0.0277629L23.2944 -0.0934833L23.0437 -0.0295342L23.2908 0.939453ZM43.5591 6.26117H44.5591V5.48984L43.8131 5.29395L43.5591 6.26117ZM43.5591 34.5279L44.5591 34.5279L44.5591 34.5279L43.5591 34.5279ZM39.6504 42.9704L40.2742 43.7519L40.2742 43.7519L39.6504 42.9704ZM43.5591 27.4612L42.5591 27.4612L42.5591 27.4612L43.5591 27.4612ZM5.75747 43.7009L22.678 56.8206L23.9035 55.2401L6.98298 42.1204L5.75747 43.7009ZM1.42285 6.26117L1.42285 34.5279L3.42285 34.5279L3.42285 6.26117L1.42285 6.26117ZM23.0437 -0.0295342L2.17574 5.29218L2.66996 7.23016L23.5379 1.90844L23.0437 -0.0295342ZM43.8131 5.29395L23.5447 -0.0277629L23.0368 1.90667L43.3052 7.22839L43.8131 5.29395ZM23.9147 56.8119L40.2742 43.7519L39.0265 42.1888L22.6669 55.2488L23.9147 56.8119ZM40.2742 43.7519C42.984 41.5887 44.5591 38.1523 44.5591 34.5279L42.5591 34.5279C42.5591 37.5889 41.2268 40.4323 39.0265 42.1888L40.2742 43.7519ZM6.98298 42.1204C4.77056 40.4049 3.42285 37.5786 3.42285 34.5279L1.42285 34.5278C1.42285 38.15 3.0206 41.5788 5.75747 43.7009L6.98298 42.1204ZM44.5591 20.3945V13.3278H42.5591V20.3945H44.5591ZM44.5591 13.3278V6.26117H42.5591V13.3278H44.5591ZM44.5591 34.5279L44.5591 27.4612L42.5591 27.4612L42.5591 34.5279L44.5591 34.5279ZM44.5591 27.4612V20.3945H42.5591V27.4612H44.5591Z" fill="#69FF93" mask="url(#path-3-inside-2_2_1727)"/>
<path d="M7.99097 25.7591L15.785 25.7591" stroke="#69FF93" stroke-miterlimit="10"/>
<path d="M12.3788 15.1638L18.1022 20.864" stroke="#69FF93" stroke-miterlimit="10"/>
<path d="M18.1023 30.6591L12.3788 36.3593" stroke="#69FF93" stroke-miterlimit="10"/>
<path d="M9.05835 20.1661L16.5673 23.1757" stroke="#69FF93" stroke-miterlimit="10"/>
<path d="M20.4249 32.1914L17.403 39.6698" stroke="#69FF93" stroke-miterlimit="10"/>
<path d="M17.122 11.9698L20.295 19.3857" stroke="#69FF93" stroke-miterlimit="10"/>
<path d="M16.6207 28.4802L9.17447 31.6403" stroke="#69FF93" stroke-miterlimit="10"/>
<path d="M8.29245 22.6792L16.2129 24.3395" stroke="#69FF93" stroke-miterlimit="10"/>
<path d="M21.5898 32.5433L19.923 40.4315" stroke="#69FF93" stroke-miterlimit="10"/>
<path d="M14.7988 13.2039L19.2208 19.9557" stroke="#69FF93" stroke-miterlimit="10"/>
<path d="M17.1942 29.5529L10.415 33.9569" stroke="#69FF93" stroke-miterlimit="10"/>
<path d="M10.515 17.4228L17.2405 21.9078" stroke="#69FF93" stroke-miterlimit="10"/>
<path d="M19.1512 31.5229L14.6478 38.2211" stroke="#69FF93" stroke-miterlimit="10"/>
<path d="M20.1003 11.0575L21.6715 18.9653" stroke="#69FF93" stroke-miterlimit="10"/>
<path d="M16.1965 27.1052L8.25629 28.6703" stroke="#69FF93" stroke-miterlimit="10"/>
<path d="M37.991 25.7589H25.6204" stroke="#69FF93" stroke-miterlimit="10"/>
<path d="M23.0282 32.9905L23.0283 40.6443" stroke="#69FF93" stroke-miterlimit="10"/>
<path d="M33.6668 15.1581L27.9434 20.8582" stroke="#69FF93" stroke-miterlimit="10"/>
<path d="M27.9435 30.6561L33.667 36.3563" stroke="#69FF93" stroke-miterlimit="10"/>
<path d="M36.9874 20.1578L29.4784 23.1674" stroke="#69FF93" stroke-miterlimit="10"/>
<path d="M25.6207 32.1832L28.6426 39.6616" stroke="#69FF93" stroke-miterlimit="10"/>
<path d="M28.9236 11.9614L25.7506 19.3773" stroke="#69FF93" stroke-miterlimit="10"/>
<path d="M29.4249 28.4736L36.8711 31.6336" stroke="#69FF93" stroke-miterlimit="10"/>
<path d="M37.7531 22.6708L29.8326 24.3311" stroke="#69FF93" stroke-miterlimit="10"/>
<path d="M24.4559 32.5403L26.1227 40.4285" stroke="#69FF93" stroke-miterlimit="10"/>
<path d="M31.2468 13.1982L26.8247 19.95" stroke="#69FF93" stroke-miterlimit="10"/>
<path d="M28.8515 29.544L35.6307 33.9481" stroke="#69FF93" stroke-miterlimit="10"/>
<path d="M35.5308 17.4143L28.8052 21.8994" stroke="#69FF93" stroke-miterlimit="10"/>
<path d="M26.8947 31.5196L31.3981 38.2178" stroke="#69FF93" stroke-miterlimit="10"/>
<path d="M25.9453 11.0483L24.3741 18.9562" stroke="#69FF93" stroke-miterlimit="10"/>
<path d="M29.8492 27.1019L37.7894 28.667" stroke="#69FF93" stroke-miterlimit="10"/>
<path d="M23.0229 10.6486L23.0229 18.8258" stroke="#69FF93" stroke-miterlimit="10"/>
<mask id="path-37-outside-3_2_1727" maskUnits="userSpaceOnUse" x="12.1576" y="14.7203" width="22" height="22" fill="black">
<rect fill="white" x="12.1576" y="14.7203" width="22" height="22"/>
<path d="M33.1576 25.7203C33.1576 31.2432 28.6804 35.7203 23.1576 35.7203C17.6347 35.7203 13.1576 31.2432 13.1576 25.7203C13.1576 20.1975 17.6347 15.7203 23.1576 15.7203C28.6804 15.7203 33.1576 20.1975 33.1576 25.7203Z"/>
</mask>
<path d="M33.1576 25.7203C33.1576 31.2432 28.6804 35.7203 23.1576 35.7203C17.6347 35.7203 13.1576 31.2432 13.1576 25.7203C13.1576 20.1975 17.6347 15.7203 23.1576 15.7203C28.6804 15.7203 33.1576 20.1975 33.1576 25.7203Z" fill="#050F11"/>
<path d="M32.1576 25.7203C32.1576 30.6909 28.1282 34.7203 23.1576 34.7203V36.7203C29.2327 36.7203 34.1576 31.7955 34.1576 25.7203H32.1576ZM23.1576 34.7203C18.187 34.7203 14.1576 30.6909 14.1576 25.7203H12.1576C12.1576 31.7955 17.0825 36.7203 23.1576 36.7203V34.7203ZM14.1576 25.7203C14.1576 20.7498 18.187 16.7203 23.1576 16.7203V14.7203C17.0825 14.7203 12.1576 19.6452 12.1576 25.7203H14.1576ZM23.1576 16.7203C28.1282 16.7203 32.1576 20.7498 32.1576 25.7203H34.1576C34.1576 19.6452 29.2327 14.7203 23.1576 14.7203V16.7203Z" fill="#69FF93" mask="url(#path-37-outside-3_2_1727)"/>
<path d="M25.0792 23.7991L22.991 17.1324L21.5619 21.695L24.1172 23.6032L25.0792 23.7991Z" fill="white"/>
<path d="M15.1993 30.5907L19.8762 29.5441L20.2557 26.383L19.9444 25.4541L15.1993 30.5907Z" fill="white"/>
<path d="M27.5353 27.0751L24.6004 28.328L23.9493 29.061L30.7826 30.5907L27.5353 27.0751Z" fill="white"/>
<path d="M23.5445 24.8749L20.4035 22.5293L21.647 26.2408L21.1803 30.1265L23.7818 27.1965L27.3891 25.6568L23.5445 24.8749Z" fill="white"/>
</svg>
