<svg width="32" height="33" viewBox="0 0 32 33" fill="none" xmlns="http://www.w3.org/2000/svg">
<rect x="0.5" y="0.898743" width="31" height="31" rx="7.5" fill="#030809"/>
<rect x="0.5" y="0.898743" width="31" height="31" rx="7.5" stroke="url(#paint0_linear_2_722)"/>
<g clip-path="url(#clip0_2_722)">
<path d="M15.892 25.4717C10.8292 25.4717 6.7253 21.3678 6.7253 16.305C6.7253 11.2423 10.8292 7.13834 15.892 7.13834C20.9547 7.13834 25.0586 11.2423 25.0586 16.305C25.0586 21.3678 20.9547 25.4717 15.892 25.4717ZM15.892 23.6383C17.8369 23.6383 19.7022 22.8657 21.0774 21.4905C22.4527 20.1152 23.2253 18.2499 23.2253 16.305C23.2253 14.3601 22.4527 12.4948 21.0774 11.1196C19.7022 9.74429 17.8369 8.97167 15.892 8.97167C13.947 8.97167 12.0818 9.74429 10.7065 11.1196C9.33125 12.4948 8.55864 14.3601 8.55864 16.305C8.55864 18.2499 9.33125 20.1152 10.7065 21.4905C12.0818 22.8657 13.947 23.6383 15.892 23.6383V23.6383ZM14.9753 19.055H16.8086V20.8883H14.9753V19.055ZM16.8086 17.5471V18.1383H14.9753V16.7633C14.9753 16.5202 15.0719 16.2871 15.2438 16.1152C15.4157 15.9432 15.6489 15.8467 15.892 15.8467C16.1524 15.8467 16.4074 15.7727 16.6274 15.6334C16.8474 15.4941 17.0234 15.2952 17.1348 15.0598C17.2461 14.8244 17.2884 14.5622 17.2566 14.3038C17.2248 14.0453 17.1203 13.8012 16.9552 13.5998C16.79 13.3985 16.5711 13.2481 16.3239 13.1663C16.0767 13.0845 15.8113 13.0745 15.5587 13.1376C15.306 13.2008 15.0765 13.3343 14.8968 13.5228C14.7171 13.7112 14.5946 13.9468 14.5436 14.2022L12.7451 13.8419C12.8565 13.2847 13.114 12.767 13.4911 12.3419C13.8683 11.9167 14.3515 11.5994 14.8915 11.4222C15.4315 11.2451 16.0088 11.2145 16.5645 11.3336C17.1202 11.4527 17.6343 11.7172 18.0542 12.1001C18.4742 12.483 18.7849 12.9705 18.9547 13.5129C19.1244 14.0552 19.1471 14.633 19.0204 15.187C18.8937 15.741 18.6222 16.2514 18.2336 16.666C17.845 17.0807 17.3533 17.3848 16.8086 17.5471V17.5471Z" fill="#A7A7A7"/>
</g>
<defs>
<linearGradient id="paint0_linear_2_722" x1="32" y1="16.3987" x2="32" y2="0.398743" gradientUnits="userSpaceOnUse">
<stop stop-color="#FFEF99" stop-opacity="0"/>
<stop offset="1" stop-color="#69FF93" stop-opacity="0.5"/>
</linearGradient>
<clipPath id="clip0_2_722">
<rect width="22" height="22" fill="white" transform="translate(4.89197 5.30499)"/>
</clipPath>
</defs>
</svg>
