<svg width="22" height="22" viewBox="0 0 22 22" fill="none" xmlns="http://www.w3.org/2000/svg">
<g clip-path="url(#clip0_274_3116)">
<path d="M11.3452 10.453C12.5001 10.453 13.6078 10.9118 14.4245 11.7285C15.2412 12.5452 15.7 13.6528 15.7 14.8078V20.0336H13.9581V14.8078C13.9581 14.1413 13.7035 13.5 13.2463 13.0151C12.789 12.5302 12.1638 12.2384 11.4985 12.1993L11.3452 12.1949C10.6787 12.1949 10.0374 12.4495 9.5525 12.9067C9.06759 13.364 8.77573 13.9892 8.73663 14.6545L8.73227 14.8078V20.0336H6.99034V14.8078C6.99034 13.6528 7.44915 12.5452 8.26584 11.7285C9.08253 10.9118 10.1902 10.453 11.3452 10.453ZM5.68388 13.0659C5.92688 13.0659 6.16292 13.0946 6.38937 13.1477C6.24045 13.5911 6.15227 14.0525 6.12721 14.5195L6.11937 14.8078V14.8827C6.01925 14.8469 5.91512 14.8235 5.8093 14.813L5.68388 14.8078C5.35912 14.8078 5.046 14.9288 4.80558 15.1472C4.56517 15.3655 4.41471 15.6656 4.38353 15.9888L4.37743 16.1143V20.0336H2.6355V16.1143C2.6355 15.3058 2.95667 14.5304 3.52835 13.9587C4.10003 13.387 4.8754 13.0659 5.68388 13.0659V13.0659ZM17.0065 13.0659C17.8149 13.0659 18.5903 13.387 19.162 13.9587C19.7337 14.5304 20.0549 15.3058 20.0549 16.1143V20.0336H18.3129V16.1143C18.3129 15.7895 18.1919 15.4764 17.9736 15.236C17.7552 14.9955 17.4552 14.8451 17.1319 14.8139L17.0065 14.8078C16.854 14.8078 16.7077 14.8339 16.571 14.8818V14.8078C16.571 14.2277 16.4769 13.6703 16.3019 13.1495C16.5274 13.0946 16.7635 13.0659 17.0065 13.0659ZM5.68388 7.84006C6.26137 7.84006 6.81521 8.06947 7.22355 8.47782C7.6319 8.88616 7.8613 9.44 7.8613 10.0175C7.8613 10.595 7.6319 11.1488 7.22355 11.5572C6.81521 11.9655 6.26137 12.1949 5.68388 12.1949C5.1064 12.1949 4.55256 11.9655 4.14422 11.5572C3.73587 11.1488 3.50647 10.595 3.50647 10.0175C3.50647 9.44 3.73587 8.88616 4.14422 8.47782C4.55256 8.06947 5.1064 7.84006 5.68388 7.84006V7.84006ZM17.0065 7.84006C17.584 7.84006 18.1378 8.06947 18.5461 8.47782C18.9545 8.88616 19.1839 9.44 19.1839 10.0175C19.1839 10.595 18.9545 11.1488 18.5461 11.5572C18.1378 11.9655 17.584 12.1949 17.0065 12.1949C16.429 12.1949 15.8751 11.9655 15.4668 11.5572C15.0585 11.1488 14.829 10.595 14.829 10.0175C14.829 9.44 15.0585 8.88616 15.4668 8.47782C15.8751 8.06947 16.429 7.84006 17.0065 7.84006V7.84006ZM5.68388 9.582C5.56839 9.582 5.45762 9.62788 5.37595 9.70955C5.29428 9.79122 5.2484 9.90199 5.2484 10.0175C5.2484 10.133 5.29428 10.2437 5.37595 10.3254C5.45762 10.4071 5.56839 10.453 5.68388 10.453C5.79938 10.453 5.91015 10.4071 5.99182 10.3254C6.07349 10.2437 6.11937 10.133 6.11937 10.0175C6.11937 9.90199 6.07349 9.79122 5.99182 9.70955C5.91015 9.62788 5.79938 9.582 5.68388 9.582ZM17.0065 9.582C16.891 9.582 16.7802 9.62788 16.6985 9.70955C16.6169 9.79122 16.571 9.90199 16.571 10.0175C16.571 10.133 16.6169 10.2437 16.6985 10.3254C16.7802 10.4071 16.891 10.453 17.0065 10.453C17.122 10.453 17.2327 10.4071 17.3144 10.3254C17.3961 10.2437 17.4419 10.133 17.4419 10.0175C17.4419 9.90199 17.3961 9.79122 17.3144 9.70955C17.2327 9.62788 17.122 9.582 17.0065 9.582ZM11.3452 2.61426C12.2692 2.61426 13.1553 2.98131 13.8086 3.63466C14.462 4.28801 14.829 5.17415 14.829 6.09813C14.829 7.02211 14.462 7.90824 13.8086 8.5616C13.1553 9.21495 12.2692 9.582 11.3452 9.582C10.4212 9.582 9.53506 9.21495 8.88171 8.5616C8.22835 7.90824 7.8613 7.02211 7.8613 6.09813C7.8613 5.17415 8.22835 4.28801 8.88171 3.63466C9.53506 2.98131 10.4212 2.61426 11.3452 2.61426V2.61426ZM11.3452 4.35619C10.8832 4.35619 10.4401 4.53972 10.1134 4.86639C9.78676 5.19307 9.60324 5.63614 9.60324 6.09813C9.60324 6.56012 9.78676 7.00319 10.1134 7.32986C10.4401 7.65654 10.8832 7.84006 11.3452 7.84006C11.8072 7.84006 12.2502 7.65654 12.5769 7.32986C12.9036 7.00319 13.0871 6.56012 13.0871 6.09813C13.0871 5.63614 12.9036 5.19307 12.5769 4.86639C12.2502 4.53972 11.8072 4.35619 11.3452 4.35619V4.35619Z" fill="#A7A7A7"/>
</g>
<defs>
<clipPath id="clip0_274_3116">
<rect width="20.9032" height="20.9032" fill="white" transform="translate(0.893555 0.872314)"/>
</clipPath>
</defs>
</svg>
