<svg width="29" height="30" viewBox="0 0 29 30" fill="none" xmlns="http://www.w3.org/2000/svg">
<path d="M4.66982 17.1447C2.18365 16.9392 0.270508 14.8615 0.270508 12.3669C9.82067 13.1559 19.4196 13.1559 28.9698 12.3669C28.9698 14.8615 27.0566 16.9392 24.5704 17.1447L23.8349 17.2054C17.7022 17.7121 11.5381 17.7121 5.40541 17.2054L4.66982 17.1447Z" fill="#69FF93"/>
<path d="M17.4168 5.21639C17.6222 2.73022 19.6999 0.817078 22.1946 0.817078L21.7244 6.50801C21.2483 12.2707 21.2483 18.0628 21.7244 23.8254L21.8311 25.117C22.0268 27.4858 20.1571 29.5163 17.7803 29.5163L17.356 24.3814C16.8494 18.2487 16.8494 12.0847 17.356 5.95198L17.4168 5.21639Z" fill="#69FF93"/>
<path d="M11.8234 5.21639C11.618 2.73022 9.54029 0.817078 7.04565 0.817078L7.51583 6.50801C7.99194 12.2707 7.99194 18.0628 7.51583 23.8254L7.40912 25.117C7.21342 27.4858 9.08312 29.5163 11.46 29.5163L11.8842 24.3814C12.3909 18.2487 12.3909 12.0847 11.8842 5.95198L11.8234 5.21639Z" fill="#69FF93"/>
</svg>
