<svg width="22" height="21" viewBox="0 0 22 21" fill="none" xmlns="http://www.w3.org/2000/svg">
<g clip-path="url(#clip0_274_3123)">
<path d="M17.4421 18.3538H5.24852C5.01752 18.3538 4.79599 18.262 4.63265 18.0987C4.46931 17.9354 4.37755 17.7138 4.37755 17.4828V9.64413H1.76465L10.7591 1.46749C10.9195 1.32158 11.1285 1.24072 11.3453 1.24072C11.5621 1.24072 11.7711 1.32158 11.9315 1.46749L20.9259 9.64413H18.313V17.4828C18.313 17.7138 18.2213 17.9354 18.0579 18.0987C17.8946 18.262 17.6731 18.3538 17.4421 18.3538ZM6.11949 16.6119H16.5711V8.03894L11.3453 3.28868L6.11949 8.03894V16.6119Z" fill="#A7A7A7"/>
<path d="M8.73231 11.6838C8.07943 11.6298 7.57703 11.0842 7.57703 10.4291V10.4291V10.4291C10.085 10.6363 12.6057 10.6363 15.1136 10.4291V10.4291V10.4291C15.1136 11.0842 14.6112 11.6298 13.9583 11.6838L13.7652 11.6997C12.1547 11.8328 10.536 11.8328 8.92548 11.6997L8.73231 11.6838Z" fill="#A7A7A7"/>
<path d="M12.0799 8.55165C12.1338 7.89877 12.6795 7.39636 13.3346 7.39636V7.39636L13.2111 8.89084C13.0861 10.4041 13.0861 11.9252 13.2111 13.4385L13.2391 13.7777C13.2905 14.3997 12.7995 14.933 12.1753 14.933V14.933L12.0639 13.5845C11.9309 11.974 11.9309 10.3553 12.0639 8.74482L12.0799 8.55165Z" fill="#A7A7A7"/>
<path d="M10.6109 8.55165C10.557 7.89877 10.0113 7.39636 9.35623 7.39636V7.39636L9.4797 8.89084C9.60473 10.4041 9.60473 11.9252 9.4797 13.4385L9.45167 13.7777C9.40028 14.3997 9.89128 14.933 10.5154 14.933V14.933L10.6269 13.5845C10.7599 11.974 10.7599 10.3553 10.6269 8.74482L10.6109 8.55165Z" fill="#A7A7A7"/>
</g>
<defs>
<clipPath id="clip0_274_3123">
<rect width="20.9032" height="20.9032" fill="white" transform="translate(0.893677 0.0634766)"/>
</clipPath>
</defs>
</svg>
