<svg width="19" height="19" viewBox="0 0 19 19" fill="none" xmlns="http://www.w3.org/2000/svg">
<path d="M13.7794 13.5537V17.1537H12.3303V13.5537C12.3303 10.3489 14.2459 7.58846 17.0012 6.34214L17.6011 7.65254C16.4613 8.16776 15.4948 8.99818 14.8171 10.0446C14.1394 11.091 13.7791 12.3092 13.7794 13.5537ZM6.53428 13.5537V17.1537H5.08527V13.5537C5.08537 12.3094 4.72506 11.0913 4.04736 10.045C3.36967 8.99874 2.40323 8.16843 1.26349 7.65326L1.86338 6.34214C3.25638 6.97178 4.43756 7.98659 5.26583 9.26538C6.0941 10.5442 6.53445 12.0329 6.53428 13.5537ZM9.43231 9.95366C8.47156 9.95366 7.55015 9.57438 6.87079 8.89925C6.19143 8.22412 5.80977 7.30844 5.80977 6.35366C5.80977 5.39888 6.19143 4.48321 6.87079 3.80808C7.55015 3.13295 8.47156 2.75366 9.43231 2.75366C10.3931 2.75366 11.3145 3.13295 11.9938 3.80808C12.6732 4.48321 13.0548 5.39888 13.0548 6.35366C13.0548 7.30844 12.6732 8.22412 11.9938 8.89925C11.3145 9.57438 10.3931 9.95366 9.43231 9.95366ZM9.43231 8.51366C9.71774 8.51366 10.0004 8.45779 10.2641 8.34924C10.5278 8.24069 10.7674 8.08159 10.9692 7.88101C11.1711 7.68044 11.3312 7.44232 11.4404 7.18026C11.5496 6.9182 11.6058 6.63732 11.6058 6.35366C11.6058 6.07001 11.5496 5.78913 11.4404 5.52707C11.3312 5.265 11.1711 5.02689 10.9692 4.82631C10.7674 4.62574 10.5278 4.46663 10.2641 4.35808C10.0004 4.24953 9.71774 4.19366 9.43231 4.19366C8.85586 4.19366 8.30301 4.42123 7.8954 4.82631C7.48778 5.23139 7.25879 5.78079 7.25879 6.35366C7.25879 6.92653 7.48778 7.47593 7.8954 7.88101C8.30301 8.28609 8.85586 8.51366 9.43231 8.51366Z" fill="#69FF93"/>
</svg>
