<svg width="33" height="33" viewBox="0 0 33 33" fill="none" xmlns="http://www.w3.org/2000/svg">
<rect x="0.535645" y="0.898743" width="31" height="31" rx="7.5" fill="#030809"/>
<rect x="0.535645" y="0.898743" width="31" height="31" rx="7.5" stroke="url(#paint0_linear_2_740)"/>
<path d="M7.93391 13.4527C7.93391 13.2194 8.02258 13.0187 8.19991 12.8507C8.38658 12.6827 8.61058 12.5987 8.87191 12.5987H15.1159C15.1159 13.1587 15.0179 13.5694 14.8219 13.8307C14.6352 14.0827 14.3272 14.2087 13.8979 14.2087H9.80991V16.6447H13.5339C13.5339 17.2047 13.4359 17.6154 13.2399 17.8767C13.0532 18.1287 12.7452 18.2547 12.3159 18.2547H9.80991V20.7887H14.1919C14.6119 20.7887 14.9152 20.9194 15.1019 21.1807C15.2979 21.4327 15.3959 21.8387 15.3959 22.3987H8.87191C8.61058 22.3987 8.38658 22.3194 8.19991 22.1607C8.02258 21.9927 7.93391 21.7874 7.93391 21.5447V13.4527ZM16.7523 13.9567C16.7523 13.4994 16.9063 13.1401 17.2143 12.8787C17.5223 12.6081 17.9376 12.4727 18.4603 12.4727L23.1923 19.8647L23.3323 19.7527L22.7583 18.8007V12.4727C23.3649 12.4727 23.8223 12.5894 24.1303 12.8227C24.4476 13.0561 24.6063 13.4014 24.6063 13.8587V21.2507C24.6063 21.5961 24.4569 21.8947 24.1583 22.1467C23.8689 22.3987 23.5329 22.5247 23.1503 22.5247L18.1663 14.7267L18.0263 14.8527L18.6003 15.8047V21.1387C18.6003 21.5961 18.4416 21.9414 18.1243 22.1747C17.8163 22.4081 17.3589 22.5247 16.7523 22.5247V13.9567Z" fill="#A7A7A7"/>
<defs>
<linearGradient id="paint0_linear_2_740" x1="32.0356" y1="16.3987" x2="32.0356" y2="0.398743" gradientUnits="userSpaceOnUse">
<stop stop-color="#FFEF99" stop-opacity="0"/>
<stop offset="1" stop-color="#69FF93" stop-opacity="0.5"/>
</linearGradient>
</defs>
</svg>
