<svg width="21" height="22" viewBox="0 0 21 22" fill="none" xmlns="http://www.w3.org/2000/svg">
<path d="M16.3452 9.85916V9.85916C15.5926 12.3029 13.8714 14.3314 11.5829 15.4719L10.5595 15.982M16.3452 9.85916V2.971M16.3452 9.85916V9.85916C18.0021 9.85916 19.3452 8.51602 19.3452 6.85916V5.971C19.3452 4.31414 18.0021 2.971 16.3452 2.971V2.971M4.34521 9.85916V9.85916C5.38208 12.328 7.27051 14.3428 9.66714 15.5372L10.5595 15.982M4.34521 9.85916V9.85916C2.68836 9.85916 1.34521 8.51601 1.34521 6.85916V5.97099C1.34521 4.31414 2.68836 2.971 4.34521 2.971V2.971M4.34521 9.85916V2.971M10.5595 15.982V20.1914M16.3452 20.1914H10.5595M4.34521 20.1914H10.5595M16.3452 2.971V1.05762H4.34521V2.971" stroke="#A7A7A7" stroke-width="2" stroke-linejoin="round"/>
</svg>
