<svg width="21" height="21" viewBox="0 0 21 21" fill="none" xmlns="http://www.w3.org/2000/svg">
<g clip-path="url(#clip0_305_3956)">
<path d="M17.5633 12.821H15.8966V16.9877H5.89665V3.65434H15.8966V7.821H17.5633V2.821C17.5633 2.59999 17.4755 2.38803 17.3192 2.23175C17.163 2.07547 16.951 1.98767 16.73 1.98767H5.06331C4.8423 1.98767 4.63034 2.07547 4.47406 2.23175C4.31778 2.38803 4.22998 2.59999 4.22998 2.821V17.821C4.22998 18.042 4.31778 18.254 4.47406 18.4103C4.63034 18.5665 4.8423 18.6543 5.06331 18.6543H16.73C16.951 18.6543 17.163 18.5665 17.3192 18.4103C17.4755 18.254 17.5633 18.042 17.5633 17.821V12.821ZM12.5633 9.48767V6.98767L8.39665 10.321L12.5633 13.6543V11.1543H19.23V9.48767H12.5633Z" fill="#69FF93"/>
</g>
<defs>
<clipPath id="clip0_305_3956">
<rect width="20" height="20" fill="white" transform="matrix(-1 0 0 1 20.8965 0.321045)"/>
</clipPath>
</defs>
</svg>
