<svg width="19" height="19" viewBox="0 0 19 19" fill="none" xmlns="http://www.w3.org/2000/svg">
<g clip-path="url(#clip0_0_2637)">
<path d="M15.9998 12.4905C16.5582 11.1639 16.6867 9.69559 16.3673 8.29213C16.048 6.88867 15.2968 5.62059 14.2194 4.66618C13.142 3.71176 11.7926 3.11901 10.3608 2.97126C8.92911 2.82351 7.48707 3.12819 6.23747 3.84246L5.38386 2.34778C6.68978 1.60139 8.1686 1.21051 9.67276 1.21414C11.1769 1.21776 12.6538 1.61576 13.9562 2.36843C17.8198 4.59884 19.2999 9.37461 17.4988 13.357L18.6536 14.023L15.0696 15.9282L14.9277 11.8718L15.9998 12.4905ZM3.30747 7.15022C2.74913 8.47685 2.62061 9.94511 2.93997 11.3486C3.25933 12.752 4.01051 14.0201 5.08791 14.9745C6.16531 15.9289 7.51473 16.5217 8.94646 16.6694C10.3782 16.8172 11.8202 16.5125 13.0698 15.7982L13.9235 17.2929C12.6175 18.0393 11.1387 18.4302 9.63455 18.4266C8.13039 18.4229 6.65347 18.0249 5.35116 17.2723C1.48752 15.0419 0.00745755 10.2661 1.80848 6.2837L0.652832 5.61854L4.23681 3.71339L4.37879 7.76978L3.30661 7.15108L3.30747 7.15022Z" fill="black"/>
<path d="M6.0218 10.5409C5.11447 10.466 4.41626 9.70769 4.41626 8.79727C7.9016 9.08522 11.4048 9.08522 14.8901 8.79727C14.8901 9.70769 14.1919 10.466 13.2846 10.5409L13.0161 10.5631C10.778 10.748 8.52839 10.748 6.29025 10.5631L6.0218 10.5409Z" fill="black"/>
<path d="M10.6738 6.18806C10.7488 5.28073 11.507 4.58252 12.4175 4.58252L12.2459 6.65943C12.0721 8.76252 12.0721 10.8764 12.2459 12.9794L12.2848 13.4508C12.3562 14.3153 11.6739 15.0564 10.8064 15.0564L10.6516 13.1824C10.4667 10.9442 10.4667 8.69465 10.6516 6.45651L10.6738 6.18806Z" fill="black"/>
<path d="M8.6326 6.18806C8.55763 5.28073 7.79936 4.58252 6.88894 4.58252L7.06053 6.65943C7.23429 8.76252 7.23429 10.8764 7.06053 12.9794L7.02159 13.4508C6.95017 14.3153 7.63252 15.0564 8.49995 15.0564L8.65478 13.1824C8.83969 10.9442 8.83969 8.69465 8.65478 6.45651L8.6326 6.18806Z" fill="black"/>
</g>
<defs>
<clipPath id="clip0_0_2637">
<rect width="18" height="18" fill="white" transform="translate(0.653564 0.819946)"/>
</clipPath>
</defs>
</svg>
