<svg width="46" height="64" viewBox="0 0 46 64" fill="none" xmlns="http://www.w3.org/2000/svg">
<mask id="path-1-outside-1_2_1883" maskUnits="userSpaceOnUse" x="0.701752" y="2.84686" width="46" height="61" fill="black">
<rect fill="white" x="0.701752" y="2.84686" width="46" height="61"/>
<path d="M23.5697 60.9377L6.64913 47.818C4.17448 45.8993 2.70175 42.7717 2.70175 39.4353L2.70175 11.1686L23.5697 5.84686L43.838 11.1686L43.838 39.4353C43.838 42.778 42.3843 45.9179 39.9293 47.8778L23.5697 60.9377Z"/>
</mask>
<path d="M23.5697 60.9377L6.64913 47.818C4.17448 45.8993 2.70175 42.7717 2.70175 39.4353L2.70175 11.1686L23.5697 5.84686L43.838 11.1686L43.838 39.4353C43.838 42.778 42.3843 45.9179 39.9293 47.8778L23.5697 60.9377Z" fill="#455D4C"/>
<path d="M6.64913 47.818L5.42362 49.3986L5.42362 49.3986L6.64913 47.818ZM23.5697 60.9377L22.3442 62.5183L23.5877 63.4825L24.8175 62.5008L23.5697 60.9377ZM2.70175 11.1686L2.20753 9.23061L0.701755 9.61461L0.701755 11.1686L2.70175 11.1686ZM2.70175 39.4353L4.70175 39.4353L4.70175 39.4353L2.70175 39.4353ZM23.5697 5.84686L24.0776 3.91243L23.577 3.78099L23.0754 3.90889L23.5697 5.84686ZM43.838 11.1686L45.838 11.1686L45.838 9.62591L44.3459 9.23415L43.838 11.1686ZM43.838 39.4353L41.838 39.4353L41.838 39.4353L43.838 39.4353ZM39.9293 47.8778L41.177 49.4408L41.177 49.4408L39.9293 47.8778ZM5.42362 49.3986L22.3442 62.5183L24.7952 59.3572L7.87464 46.2375L5.42362 49.3986ZM0.701755 11.1686L0.701752 39.4353L4.70175 39.4353L4.70175 11.1686L0.701755 11.1686ZM23.0754 3.90889L2.20753 9.23061L3.19598 13.1066L24.0639 7.78484L23.0754 3.90889ZM44.3459 9.23415L24.0776 3.91243L23.0618 7.78129L43.3301 13.103L44.3459 9.23415ZM45.838 39.4353L45.838 11.1686L41.838 11.1686L41.838 39.4353L45.838 39.4353ZM24.8175 62.5008L41.177 49.4408L38.6815 46.3147L22.3219 59.3747L24.8175 62.5008ZM41.177 49.4408C44.1415 47.0742 45.838 43.3414 45.838 39.4353L41.838 39.4353C41.838 42.2146 40.6271 44.7615 38.6815 46.3147L41.177 49.4408ZM7.87464 46.2375C5.92445 44.7254 4.70175 42.2004 4.70175 39.4353L0.701752 39.4353C0.701745 43.3431 2.42452 47.0732 5.42362 49.3986L7.87464 46.2375Z" fill="#050F11" mask="url(#path-1-outside-1_2_1883)"/>
<mask id="path-3-inside-2_2_1883" fill="white">
<path d="M23.5696 56.0284L6.64904 42.9087C4.17439 40.9899 2.70165 37.8624 2.70166 34.5259L2.70166 6.25922L23.5696 0.9375L43.8379 6.25922V13.3259V20.3926V27.4592L43.8379 34.5259C43.8379 37.8686 42.3842 41.0085 39.9292 42.9684L23.5696 56.0284Z"/>
</mask>
<path d="M23.5696 56.0284L6.64904 42.9087C4.17439 40.9899 2.70165 37.8624 2.70166 34.5259L2.70166 6.25922L23.5696 0.9375L43.8379 6.25922V13.3259V20.3926V27.4592L43.8379 34.5259C43.8379 37.8686 42.3842 41.0085 39.9292 42.9684L23.5696 56.0284Z" fill="#050F11"/>
<path d="M6.64904 42.9087L6.03628 43.699L6.03628 43.699L6.64904 42.9087ZM23.5696 56.0284L22.9568 56.8187L23.5786 57.3008L24.1935 56.8099L23.5696 56.0284ZM2.70166 6.25922L2.45455 5.29023L1.70166 5.48223L1.70166 6.25922L2.70166 6.25922ZM2.70166 34.5259L3.70166 34.5259L3.70166 34.5259L2.70166 34.5259ZM23.5696 0.9375L23.8235 -0.0297161L23.5732 -0.0954364L23.3225 -0.0314873L23.5696 0.9375ZM43.8379 6.25922H44.8379V5.48788L44.0919 5.292L43.8379 6.25922ZM43.8379 34.5259L44.8379 34.5259L44.8379 34.5259L43.8379 34.5259ZM39.9292 42.9684L40.5531 43.7499L40.5531 43.7499L39.9292 42.9684ZM43.8379 27.4592L42.8379 27.4592L42.8379 27.4592L43.8379 27.4592ZM6.03628 43.699L22.9568 56.8187L24.1823 55.2381L7.26179 42.1184L6.03628 43.699ZM1.70166 6.25922L1.70166 34.5259L3.70166 34.5259L3.70166 6.25922L1.70166 6.25922ZM23.3225 -0.0314873L2.45455 5.29023L2.94877 7.2282L23.8167 1.90649L23.3225 -0.0314873ZM44.0919 5.292L23.8235 -0.0297161L23.3156 1.90472L43.584 7.22643L44.0919 5.292ZM24.1935 56.8099L40.5531 43.7499L39.3053 42.1869L22.9457 55.2469L24.1935 56.8099ZM40.5531 43.7499C43.2628 41.5867 44.8379 38.1503 44.8379 34.5259L42.8379 34.5259C42.8379 37.587 41.5056 40.4303 39.3053 42.1869L40.5531 43.7499ZM7.26179 42.1184C5.04937 40.403 3.70166 37.5767 3.70166 34.5259L1.70166 34.5259C1.70165 38.1481 3.29941 41.5769 6.03628 43.699L7.26179 42.1184ZM44.8379 20.3926V13.3259H42.8379V20.3926H44.8379ZM44.8379 13.3259V6.25922H42.8379V13.3259H44.8379ZM44.8379 34.5259L44.8379 27.4592L42.8379 27.4592L42.8379 34.5259L44.8379 34.5259ZM44.8379 27.4592V20.3926H42.8379V27.4592H44.8379Z" fill="#69FF93" mask="url(#path-3-inside-2_2_1883)"/>
<rect x="21.1553" y="8.91431" width="3" height="3" transform="rotate(-45 21.1553 8.91431)" fill="#69FF93"/>
<rect x="37.1428" y="25.6467" width="3" height="3" transform="rotate(-45 37.1428 25.6467)" fill="#69FF93"/>
<rect x="5.15411" y="25.6467" width="3" height="3" transform="rotate(-45 5.15411 25.6467)" fill="#69FF93"/>
<rect x="21.1553" y="42.6292" width="3" height="3" transform="rotate(-45 21.1553 42.6292)" fill="#69FF93"/>
<path d="M12.6955 15.1151L18.3813 20.7782" stroke="#69FF93" stroke-miterlimit="10"/>
<path d="M18.3813 30.5179L12.6955 36.181" stroke="#69FF93" stroke-miterlimit="10"/>
<path d="M9.39676 20.088L16.8563 23.0779" stroke="#69FF93" stroke-miterlimit="10"/>
<path d="M20.6888 32.0357L17.6868 39.4655" stroke="#69FF93" stroke-miterlimit="10"/>
<path d="M17.4077 11.9447L20.5597 19.3124" stroke="#69FF93" stroke-miterlimit="10"/>
<path d="M16.9094 28.345L9.51218 31.4844" stroke="#69FF93" stroke-miterlimit="10"/>
<path d="M8.63589 22.5807L16.5042 24.2302" stroke="#69FF93" stroke-miterlimit="10"/>
<path d="M21.8461 32.3842L20.1902 40.2211" stroke="#69FF93" stroke-miterlimit="10"/>
<path d="M15.0996 13.1723L19.4926 19.8802" stroke="#69FF93" stroke-miterlimit="10"/>
<path d="M17.4792 29.4129L10.7446 33.7883" stroke="#69FF93" stroke-miterlimit="10"/>
<path d="M10.8438 17.3587L17.5251 21.8146" stroke="#69FF93" stroke-miterlimit="10"/>
<path d="M19.4233 31.3699L14.9496 38.0245" stroke="#69FF93" stroke-miterlimit="10"/>
<path d="M20.3664 11.037L21.9273 18.8934" stroke="#69FF93" stroke-miterlimit="10"/>
<path d="M16.4879 26.9835L8.59998 28.5384" stroke="#69FF93" stroke-miterlimit="10"/>
<path d="M39.9393 25.6467L6.53044 25.6467" stroke="#69FF93" stroke-miterlimit="10"/>
<path d="M33.8443 15.1143L28.1585 20.7774" stroke="#69FF93" stroke-miterlimit="10"/>
<path d="M28.1585 30.5171L33.8443 36.1802" stroke="#69FF93" stroke-miterlimit="10"/>
<path d="M37.1429 20.0872L29.6833 23.0771" stroke="#69FF93" stroke-miterlimit="10"/>
<path d="M25.8508 32.037L28.8528 39.4667" stroke="#69FF93" stroke-miterlimit="10"/>
<path d="M29.1319 11.944L25.9798 19.3117" stroke="#69FF93" stroke-miterlimit="10"/>
<path d="M29.6302 28.3461L37.0274 31.4856" stroke="#69FF93" stroke-miterlimit="10"/>
<path d="M37.9036 22.5796L30.0352 24.2291" stroke="#69FF93" stroke-miterlimit="10"/>
<path d="M24.6936 32.3852L26.3494 40.2221" stroke="#69FF93" stroke-miterlimit="10"/>
<path d="M31.4401 13.1735L27.0472 19.8814" stroke="#69FF93" stroke-miterlimit="10"/>
<path d="M29.0605 29.4101L35.795 33.7855" stroke="#69FF93" stroke-miterlimit="10"/>
<path d="M35.6958 17.3599L29.0146 21.8157" stroke="#69FF93" stroke-miterlimit="10"/>
<path d="M27.1165 31.3712L31.5902 38.0258" stroke="#69FF93" stroke-miterlimit="10"/>
<path d="M26.1731 11.0362L24.6122 18.8926" stroke="#69FF93" stroke-miterlimit="10"/>
<path d="M30.0517 26.9848L37.9396 28.5397" stroke="#69FF93" stroke-miterlimit="10"/>
<path d="M23.2349 8.58032L23.2349 43.6018" stroke="#69FF93" stroke-miterlimit="10"/>
<mask id="path-39-outside-3_2_1883" maskUnits="userSpaceOnUse" x="12.4015" y="14.6194" width="22" height="22" fill="black">
<rect fill="white" x="12.4015" y="14.6194" width="22" height="22"/>
<path d="M33.4015 25.6194C33.4015 31.1422 28.9243 35.6194 23.4015 35.6194C17.8786 35.6194 13.4015 31.1422 13.4015 25.6194C13.4015 20.0965 17.8786 15.6194 23.4015 15.6194C28.9243 15.6194 33.4015 20.0965 33.4015 25.6194Z"/>
</mask>
<path d="M33.4015 25.6194C33.4015 31.1422 28.9243 35.6194 23.4015 35.6194C17.8786 35.6194 13.4015 31.1422 13.4015 25.6194C13.4015 20.0965 17.8786 15.6194 23.4015 15.6194C28.9243 15.6194 33.4015 20.0965 33.4015 25.6194Z" fill="#050F11"/>
<path d="M32.4015 25.6194C32.4015 30.5899 28.372 34.6194 23.4015 34.6194V36.6194C29.4766 36.6194 34.4015 31.6945 34.4015 25.6194H32.4015ZM23.4015 34.6194C18.4309 34.6194 14.4015 30.5899 14.4015 25.6194H12.4015C12.4015 31.6945 17.3263 36.6194 23.4015 36.6194V34.6194ZM14.4015 25.6194C14.4015 20.6488 18.4309 16.6194 23.4015 16.6194V14.6194C17.3263 14.6194 12.4015 19.5443 12.4015 25.6194H14.4015ZM23.4015 16.6194C28.372 16.6194 32.4015 20.6488 32.4015 25.6194H34.4015C34.4015 19.5443 29.4766 14.6194 23.4015 14.6194V16.6194Z" fill="#69FF93" mask="url(#path-39-outside-3_2_1883)"/>
<path d="M25.8723 24.1522C25.4189 25.1016 25.6875 26.3212 26.6797 26.9489L28.0029 27.7857L30.8364 27.9129L25.8723 24.1519V24.1522Z" fill="white"/>
<path d="M23.4254 24.5321L25.3517 23.5316L24.5642 17.0063L23.2118 19.5537L23.4254 24.5321Z" fill="white"/>
<path d="M22.9154 21.0858L22.9782 19.6217L21.6099 16.9957L20.814 23.1852C21.8959 23.1345 22.8644 22.2811 22.9154 21.0861V21.0858Z" fill="white"/>
<path d="M23.4254 25.6649L23.3296 27.8924L29.3491 30.454L27.7391 27.9052L23.4254 25.6649Z" fill="white"/>
<path d="M22.4391 25.0983L20.5501 23.9037L15.2531 27.8537L18.2602 27.7416L22.4391 25.0983Z" fill="white"/>
<path d="M19.6943 27.261L18.2632 28.0041L16.7201 30.4051L22.5444 27.9799C21.9488 27.1026 20.7434 26.7157 19.6943 27.2606V27.261Z" fill="white"/>
</svg>
