<svg width="22" height="22" viewBox="0 0 22 22" fill="none" xmlns="http://www.w3.org/2000/svg">
<path d="M10.8452 1.09509L18.1345 2.68548C18.5399 2.77432 18.8291 3.12706 18.8291 3.53554V12.2339C18.8291 13.9811 17.9393 15.6133 16.4587 16.5818L10.8452 20.2564L5.23165 16.5818C3.7502 15.6124 2.86133 13.9811 2.86133 12.2348V3.53554C2.86133 3.12706 3.15052 2.77432 3.55592 2.68548L10.8452 1.09509ZM10.8452 2.87971L4.63552 4.23406V12.2339C4.63552 13.3984 5.2281 14.4862 6.21544 15.1325L10.8452 18.1634L15.475 15.1325C16.4623 14.4862 17.0549 13.3993 17.0549 12.2348V4.23406L10.8452 2.87971Z" fill="#A7A7A7"/>
<path d="M10.8452 5.39551C10.5553 7.87075 9.23031 10.1175 7.18591 11.6012C9.52024 10.6094 12.1701 10.6094 14.5045 11.6012C12.4601 10.1177 11.1353 7.87075 10.8452 5.39551Z" fill="#A7A7A7"/>
</svg>
