<svg width="19" height="18" viewBox="0 0 19 18" fill="none" xmlns="http://www.w3.org/2000/svg">
<path d="M14.7493 9.07269L15.8976 11.0624C16.6228 12.3179 16.1923 13.9237 14.9376 14.6482C14.5378 14.8784 14.0856 14.9999 13.6251 14.9999H12.0778V16.8749L8.32784 13.4999H12.0778H13.6243C13.8216 13.4999 14.0158 13.4474 14.1868 13.3492C14.7253 13.0387 14.9091 12.3502 14.5993 11.8124L13.4503 9.82269L14.7493 9.07269ZM6.31471 7.03769L4.33034 10.4729L3.55709 11.8124C3.45809 11.9834 3.40634 12.1777 3.40634 12.3749C3.40634 12.9959 3.90959 13.4999 4.53134 13.4999H6.82784V14.9999H4.53134C3.08159 14.9999 1.90634 13.8247 1.90634 12.3749C1.90634 11.9144 2.02784 11.4614 2.25809 11.0624L3.03059 9.72219L1.40759 8.78544L6.31471 7.03769ZM10.3903 2.22669C10.7893 2.45694 11.1208 2.78844 11.3511 3.18744L12.1236 4.52619L13.7481 3.58869L12.7868 8.52369L10.8253 5.27694L10.0521 3.93744C9.95309 3.76644 9.81134 3.62469 9.64034 3.52569C9.10259 3.21519 8.41409 3.39969 8.10359 3.93744L6.95459 5.92719L5.65559 5.17719L6.80534 3.18744C7.52984 1.93194 9.13484 1.50144 10.3903 2.22669Z" fill="#69FF93"/>
<path d="M11.4692 8.25302H9.4888V4.95239L6.18817 9.57327H8.16855V12.8739L11.4692 8.25302Z" fill="#69FF93"/>
</svg>
