<svg width="22" height="22" viewBox="0 0 22 22" fill="none" xmlns="http://www.w3.org/2000/svg">
<path d="M17.4421 20.034H5.24852C4.55554 20.034 3.89094 19.7587 3.40092 19.2687C2.91091 18.7787 2.63562 18.1141 2.63562 17.4211V3.48559C2.63562 3.2546 2.72738 3.03306 2.89072 2.86972C3.05406 2.70639 3.27559 2.61462 3.50659 2.61462H15.7001C15.9311 2.61462 16.1527 2.70639 16.316 2.86972C16.4793 3.03306 16.5711 3.2546 16.5711 3.48559V13.9372H20.055V17.4211C20.055 18.1141 19.7797 18.7787 19.2897 19.2687C18.7997 19.7587 18.1351 20.034 17.4421 20.034ZM16.5711 15.6791V17.4211C16.5711 17.6521 16.6629 17.8736 16.8262 18.0369C16.9895 18.2003 17.2111 18.292 17.4421 18.292C17.6731 18.292 17.8946 18.2003 18.0579 18.0369C18.2213 17.8736 18.313 17.6521 18.313 17.4211V15.6791H16.5711ZM14.8292 18.292V4.35656H4.37756V17.4211C4.37756 17.6521 4.46932 17.8736 4.63266 18.0369C4.79599 18.2003 5.01753 18.292 5.24852 18.292H14.8292ZM6.11949 6.96946H13.0872V8.7114H6.11949V6.96946ZM6.11949 10.4533H13.0872V12.1953H6.11949V10.4533ZM6.11949 13.9372H10.4743V15.6791H6.11949V13.9372Z" fill="#A7A7A7"/>
</svg>
