<svg width="19" height="19" viewBox="0 0 19 19" fill="none" xmlns="http://www.w3.org/2000/svg">
<g clip-path="url(#clip0_309_4362)">
<path d="M9.35194 15.662C10.9335 15.662 12.4502 15.0298 13.5686 13.9046C14.6869 12.7794 15.3151 11.2533 15.3151 9.66199C15.3151 8.07069 14.6869 6.54456 13.5686 5.41935C12.4502 4.29413 10.9335 3.66199 9.35194 3.66199C7.7704 3.66199 6.25364 4.29413 5.13532 5.41935C4.01701 6.54456 3.38875 8.07069 3.38875 9.66199C3.38875 11.2533 4.01701 12.7794 5.13532 13.9046C6.25364 15.0298 7.7704 15.662 9.35194 15.662ZM9.35194 17.162C5.2351 17.162 1.89795 13.8042 1.89795 9.66199C1.89795 5.51974 5.2351 2.16199 9.35194 2.16199C13.4688 2.16199 16.8059 5.51974 16.8059 9.66199C16.8059 13.8042 13.4688 17.162 9.35194 17.162ZM7.03375 10.5395L5.17174 9.95524C4.76923 9.83149 4.76699 9.55249 5.26193 9.35224L12.5169 6.53224C12.9381 6.35974 13.1766 6.57799 13.0402 7.12474L11.805 12.9897C11.7186 13.4075 11.4689 13.5072 11.1223 13.3145L9.22075 11.8985L8.33447 12.7595C8.24353 12.848 8.16973 12.9237 8.0296 12.9425C7.89021 12.962 7.77542 12.92 7.69119 12.6875L7.04269 10.5342L7.03375 10.5402V10.5395Z" fill="black"/>
</g>
<defs>
<clipPath id="clip0_309_4362">
<rect width="17.8896" height="18" fill="white" transform="translate(0.407227 0.661987)"/>
</clipPath>
</defs>
</svg>
