<svg width="32" height="33" viewBox="0 0 32 33" fill="none" xmlns="http://www.w3.org/2000/svg">
<rect x="0.5" y="0.898743" width="31" height="31" rx="7.5" fill="#030809"/>
<rect x="0.5" y="0.898743" width="31" height="31" rx="7.5" stroke="url(#paint0_linear_2_717)"/>
<path d="M7 21.9372L7 10.8603C7 9.50081 8.23983 8.39874 9.76924 8.39874L22.2308 8.39877C23.7602 8.39877 25 9.50084 25 10.8603V21.9372C25 23.2967 23.7602 24.3987 22.2308 24.3987L9.76923 24.3987C8.23983 24.3987 7 23.2967 7 21.9372Z" fill="#A7A7A7" stroke="#0E0E1A"/>
<path d="M17.4775 17.0139V15.7831C17.4775 14.4237 18.7174 13.3216 20.2468 13.3216L26.4775 13.3216V19.4754L20.2468 19.4754C18.7174 19.4754 17.4775 18.3734 17.4775 17.0139Z" fill="#A7A7A7"/>
<path d="M17.4775 15.7831L16.9775 15.7831V15.7831H17.4775ZM17.4775 17.0139L17.9775 17.0139V17.0139H17.4775ZM26.4775 19.4754L26.4775 19.9754C26.7537 19.9754 26.9775 19.7516 26.9775 19.4754H26.4775ZM20.2468 19.4754L20.2468 19.9754L20.2468 19.9754L20.2468 19.4754ZM26.4775 13.3216H26.9775V12.8216L26.4775 12.8216L26.4775 13.3216ZM20.2468 13.3216L20.2468 13.8216L20.2468 13.8216L20.2468 13.3216ZM16.9775 15.7831V17.0139H17.9775V15.7831H16.9775ZM26.4775 18.9754L20.2468 18.9754L20.2468 19.9754L26.4775 19.9754L26.4775 18.9754ZM25.9775 13.3216V19.4754H26.9775V13.3216H25.9775ZM26.4775 12.8216L20.2468 12.8216L20.2468 13.8216L26.4775 13.8216L26.4775 12.8216ZM17.9775 15.7831C17.9775 14.7535 18.9365 13.8216 20.2468 13.8216L20.2468 12.8216C18.4982 12.8216 16.9775 14.0938 16.9775 15.7831L17.9775 15.7831ZM16.9775 17.0139C16.9775 18.7032 18.4982 19.9754 20.2468 19.9754L20.2468 18.9754C18.9365 18.9754 17.9775 18.0435 17.9775 17.0139L16.9775 17.0139Z" fill="#0E0E1A"/>
<circle cx="21.028" cy="16.3992" r="1.42529" stroke="#0E0E1A"/>
<defs>
<linearGradient id="paint0_linear_2_717" x1="32" y1="16.3987" x2="32" y2="0.398743" gradientUnits="userSpaceOnUse">
<stop stop-color="#FFEF99" stop-opacity="0"/>
<stop offset="1" stop-color="#69FF93" stop-opacity="0.5"/>
</linearGradient>
</defs>
</svg>
